<svg width="111" height="23" viewBox="0 0 111 23" fill="none" xmlns="http://www.w3.org/2000/svg">
<path d="M4.01292 20.5799L8.97495 14.3333C9.22977 14.0701 9.3854 13.726 9.41455 13.3601C9.41833 13.2447 9.39314 13.1301 9.34176 13.0269C9.29039 12.9237 9.21465 12.835 9.12053 12.7688C8.89055 12.6096 8.6151 12.5307 8.33614 12.5441C8.21275 12.548 8.08967 12.5585 7.96741 12.5757L0 13.6554V9.21796L7.96741 10.3095C8.08965 10.3269 8.21274 10.3374 8.33614 10.341C8.61617 10.3537 8.89218 10.272 9.12053 10.1087C9.2142 10.0412 9.28952 9.95167 9.34081 9.84794C9.39209 9.7442 9.41759 9.62937 9.41455 9.51359C9.38993 9.15306 9.24032 8.81262 8.99123 8.55191L3.99759 2.21489L8.022 0L11.0188 7.4091C11.1086 7.68575 11.2672 7.935 11.4785 8.13409C11.554 8.21473 11.6445 8.27899 11.7457 8.32292C11.8469 8.36684 11.9563 8.38955 12.0665 8.38955C12.1768 8.38955 12.2862 8.36684 12.3874 8.32292C12.4886 8.27899 12.579 8.21473 12.6546 8.13409C12.8626 7.93309 13.0196 7.68436 13.1105 7.4091L16.0833 0L20.1795 2.21489L15.138 8.55191C14.8826 8.82103 14.7272 9.17031 14.6984 9.54101C14.6963 9.65302 14.7213 9.76409 14.7712 9.86429C14.821 9.9645 14.8943 10.0511 14.9847 10.1166C15.2226 10.2779 15.5065 10.3565 15.7931 10.341C15.9246 10.344 16.0564 10.3335 16.1857 10.3095L24.1101 9.21796V13.6554L16.1857 12.5757C16.0447 12.5503 15.9009 12.5398 15.7576 12.5441C15.4812 12.5277 15.2067 12.5994 14.9733 12.7491C14.8842 12.813 14.8118 12.8977 14.7626 12.9959C14.7133 13.0941 14.6888 13.2028 14.6907 13.3127C14.7247 13.6921 14.8804 14.0501 15.1342 14.3333L20.1556 20.5799L16.0756 22.8736L13.0865 15.4722C12.9934 15.1981 12.8376 14.9499 12.6316 14.7473C12.556 14.6666 12.4646 14.6023 12.3634 14.5584C12.2622 14.5145 12.1528 14.4918 12.0426 14.4918C11.9323 14.4918 11.8239 14.5145 11.7227 14.5584C11.6215 14.6023 11.5301 14.6666 11.4545 14.7473C11.247 14.9517 11.0859 15.199 10.9833 15.4722L7.98656 22.8736L4.01292 20.5799Z" fill="black"/>
<path d="M34.0533 21.8182H29.1101L36.6421 0H42.5867L50.108 21.8182H45.1648L39.6996 4.9858H39.5291L34.0533 21.8182ZM33.7443 13.2422H45.4205V16.843H33.7443V13.2422Z" fill="black"/>
<path d="M52.5636 21.8182V19.1122L60.575 9.19389V9.0767H52.8406V5.45455H66.0401V8.40554L58.5188 18.0788V18.196H66.3171V21.8182H52.5636Z" fill="black"/>
<path d="M69.7023 21.8182V19.1122L77.7136 9.19389V9.0767H69.9792V5.45455H83.1788V8.40554L75.6575 18.0788V18.196H83.4558V21.8182H69.7023Z" fill="black"/>
<path d="M91.4645 0V21.8182H86.9262V0H91.4645Z" fill="black"/>
<path d="M102.557 22.1378C100.874 22.1378 99.4253 21.7969 98.2108 21.1151C97.0034 20.4261 96.073 19.4531 95.4196 18.196C94.7662 16.9318 94.4395 15.4368 94.4395 13.7109C94.4395 12.0277 94.7662 10.5504 95.4196 9.27912C96.073 8.00781 96.9927 7.01705 98.1788 6.30682C99.372 5.59659 100.771 5.24148 102.376 5.24148C103.456 5.24148 104.461 5.41548 105.391 5.76349C106.329 6.1044 107.145 6.61932 107.841 7.30824C108.545 7.99716 109.091 8.86364 109.482 9.90767C109.873 10.9446 110.068 12.1591 110.068 13.5511V14.7976H96.2506V11.9851H105.796C105.796 11.3317 105.654 10.7528 105.37 10.2486C105.086 9.74432 104.692 9.35014 104.187 9.06605C103.69 8.77486 103.111 8.62926 102.451 8.62926C101.762 8.62926 101.151 8.78906 100.618 9.10866C100.093 9.42116 99.681 9.84375 99.3827 10.3764C99.0844 10.902 98.9317 11.4879 98.9246 12.1342V14.8082C98.9246 15.6179 99.0737 16.3175 99.372 16.907C99.6774 17.4965 100.107 17.951 100.661 18.2706C101.215 18.5902 101.872 18.75 102.632 18.75C103.136 18.75 103.598 18.679 104.017 18.5369C104.436 18.3949 104.795 18.1818 105.093 17.8977C105.391 17.6136 105.618 17.2656 105.775 16.8537L109.972 17.1307C109.759 18.1392 109.322 19.0199 108.662 19.7727C108.008 20.5185 107.163 21.1009 106.126 21.5199C105.096 21.9318 103.907 22.1378 102.557 22.1378Z" fill="black"/>
</svg>
