<svg width="168" height="36" viewBox="0 0 168 36" fill="none" xmlns="http://www.w3.org/2000/svg">
<g clip-path="url(#clip0_1_4382)">
<path d="M135.46 2.82251V33.1518H139.947V2.82251H135.46Z" fill="#010D09"/>
<path fill-rule="evenodd" clip-rule="evenodd" d="M94.889 33.6406C93.1183 33.6406 91.6393 33.2326 90.4515 32.4165C90.3214 32.3275 90.1953 32.2345 90.0723 32.1381V33.1509H86.1132V3.31128H90.6331V16.0946C91.742 15.3893 93.0834 15.0365 94.6579 15.0365C96.3624 15.0365 97.847 15.4391 99.1118 16.2441C100.377 17.0493 101.355 18.1535 102.048 19.557C102.752 20.9496 103.103 22.5435 103.103 24.3384C103.103 26.1009 102.757 27.684 102.064 29.0876C101.383 30.4909 100.426 31.6007 99.1944 32.4165C97.9626 33.2326 96.5276 33.6406 94.889 33.6406ZM90.4681 21.5317C90.2039 22.3366 90.0723 23.2722 90.0723 24.3384C90.0723 25.4045 90.2039 26.3405 90.4681 27.1454C90.7318 27.9507 91.161 28.5759 91.7545 29.0223C92.3594 29.4682 93.1624 29.691 94.163 29.691C95.1306 29.691 95.9227 29.452 96.5386 28.9734C97.1545 28.4946 97.6107 27.8527 97.9075 27.0474C98.2046 26.2317 98.3529 25.3287 98.3529 24.3384C98.3529 23.3593 98.1991 22.4673 97.891 21.6624C97.5832 20.8463 97.105 20.1989 96.456 19.7201C95.8181 19.2306 94.9986 18.9858 93.998 18.9858C93.0633 18.9858 92.3043 19.2089 91.7219 19.655C91.15 20.1009 90.7318 20.7264 90.4681 21.5317Z" fill="#010D09"/>
<path d="M79.0193 22.7396V33.1515H83.5058V21.5649C83.5058 19.6391 82.9835 18.0833 81.9388 16.8975C80.9051 15.7008 79.371 15.1023 77.3367 15.1023C76.1489 15.1023 75.0657 15.3634 74.0871 15.8857C73.191 16.3592 72.4599 17.0098 71.8939 17.8378C71.4718 17.0863 70.8885 16.4683 70.1444 15.9836C69.2539 15.396 68.1101 15.1023 66.7136 15.1023C65.4929 15.1023 64.3876 15.3689 63.3979 15.9019C62.65 16.3094 62.0176 16.8279 61.5007 17.4577V15.5266H57.5421V33.1515H62.0617V22.4786C62.0617 21.4668 62.3422 20.6454 62.9032 20.0144C63.475 19.3726 64.2281 19.0516 65.1628 19.0516C66.1418 19.0516 66.9058 19.3779 67.4557 20.0307C68.0166 20.6727 68.2972 21.5758 68.2972 22.7396V33.1515H72.7837V22.4786C72.7837 21.804 72.9103 21.211 73.1635 20.6999C73.4271 20.1776 73.79 19.775 74.2521 19.4923C74.714 19.1984 75.2583 19.0516 75.8852 19.0516C76.8639 19.0516 77.628 19.3779 78.1778 20.0307C78.7386 20.6727 79.0193 21.5758 79.0193 22.7396Z" fill="#010D09"/>
<path d="M41.4668 32.9713C42.3465 33.4391 43.4847 33.6731 44.8815 33.6731C46.6298 33.6731 48.0762 33.298 49.2199 32.5471C49.7627 32.1945 50.241 31.7896 50.6549 31.3335V33.151H54.614V15.5261H50.0941V24.469C50.0941 25.557 49.9675 26.4382 49.7148 27.1127C49.4727 27.7765 49.1595 28.2824 48.7742 28.6304C48.3894 28.9679 47.9771 29.1961 47.5374 29.3158C47.0976 29.4357 46.6849 29.4955 46.3001 29.4955C45.3434 29.4955 44.601 29.2832 44.073 28.859C43.5563 28.4347 43.1825 27.9071 42.9514 27.2761C42.7206 26.6449 42.5831 26.0193 42.5391 25.3991C42.495 24.7685 42.473 24.2517 42.473 23.8489V15.5261H37.9204V25.4155C37.9204 25.7095 37.942 26.1772 37.9861 26.8192C38.0301 27.4611 38.1567 28.1735 38.3657 28.957C38.5745 29.7293 38.9212 30.4746 39.405 31.1928C39.8998 31.9106 40.5872 32.5036 41.4668 32.9713Z" fill="#010D09"/>
<path d="M105.083 15.5261V33.1509H109.603V24.1426C109.603 23.4681 109.697 22.8643 109.884 22.3311C110.071 21.7871 110.345 21.3194 110.708 20.9278C111.071 20.5251 111.517 20.2043 112.045 19.965C112.573 19.7148 113.161 19.5678 113.81 19.5244C114.469 19.4699 115.047 19.5189 115.541 19.6712V15.5261C115.003 15.4608 114.464 15.4499 113.925 15.4934C113.386 15.5261 112.864 15.6185 112.358 15.7709C111.852 15.9124 111.385 16.1135 110.956 16.3747C110.395 16.7011 109.922 17.1144 109.537 17.615C109.355 17.8518 109.19 18.101 109.042 18.3622V15.5261H105.083Z" fill="#010D09"/>
<path fill-rule="evenodd" clip-rule="evenodd" d="M124.989 33.6405C123.163 33.6405 121.552 33.2545 120.156 32.4818C118.77 31.6987 117.681 30.6271 116.89 29.2669C116.109 27.8963 115.718 26.3297 115.718 24.5671C115.718 22.6415 116.103 20.9661 116.873 19.5408C117.643 18.1156 118.704 17.0113 120.057 16.2279C121.409 15.4338 122.966 15.0366 124.725 15.0366C126.595 15.0366 128.184 15.4718 129.492 16.3422C130.801 17.2125 131.769 18.4364 132.395 20.0141C133.022 21.5917 133.243 23.4464 133.056 25.5789H120.546C120.686 26.6369 121.018 27.4962 121.541 28.1572C122.267 29.0496 123.328 29.4956 124.725 29.4956C125.605 29.4956 126.358 29.3051 126.985 28.9244C127.612 28.5437 128.09 27.9943 128.42 27.2761L132.907 28.5491C132.236 30.1592 131.175 31.4102 129.723 32.3022C128.283 33.1945 126.705 33.6405 124.989 33.6405ZM127.744 20.0792C128.127 20.5946 128.384 21.3292 128.516 22.2822H120.664C120.839 21.4684 121.131 20.7992 121.541 20.2752C122.267 19.3503 123.394 18.8879 124.923 18.8879C126.232 18.8879 127.172 19.2851 127.744 20.0792Z" fill="#010D09"/>
<path d="M143.572 33.1518V2.82251H148.06V33.1518H143.572Z" fill="#010D09"/>
<path fill-rule="evenodd" clip-rule="evenodd" d="M153.054 32.9224C153.945 33.4011 155.029 33.6405 156.304 33.6405C157.843 33.6405 159.113 33.3793 160.114 32.857C160.912 32.4368 161.665 31.8138 162.374 30.9876V33.151H166.3V22.3802C166.3 21.5753 166.267 20.8462 166.2 20.1936C166.135 19.5408 165.926 18.8879 165.574 18.2352C164.947 17.0602 164.024 16.2334 162.803 15.7547C161.582 15.2759 160.186 15.0366 158.613 15.0366C156.469 15.0366 154.775 15.4936 153.532 16.4075C152.29 17.3213 151.443 18.5073 150.993 19.965L155.05 21.2378C155.336 20.4329 155.837 19.8726 156.551 19.5571C157.266 19.2416 157.953 19.0838 158.613 19.0838C159.801 19.0838 160.647 19.3287 161.153 19.8182C161.551 20.2027 161.792 20.758 161.878 21.4848C161.117 21.5987 160.397 21.7068 159.719 21.809C158.564 21.9724 157.529 22.1465 156.618 22.3313C155.705 22.5163 154.918 22.7286 154.258 22.9678C153.301 23.3158 152.537 23.7513 151.966 24.2735C151.404 24.7849 150.998 25.3774 150.744 26.052C150.492 26.7266 150.365 27.4721 150.365 28.2879C150.365 29.2669 150.591 30.1644 151.041 30.9805C151.504 31.7854 152.174 32.4328 153.054 32.9224ZM159.339 29.7238C158.778 30.0069 158.085 30.1484 157.26 30.1484C156.743 30.1484 156.298 30.0722 155.924 29.9198C155.551 29.7673 155.259 29.55 155.05 29.2669C154.852 28.9733 154.753 28.6249 154.753 28.2225C154.753 27.929 154.813 27.6621 154.935 27.4231C155.066 27.1835 155.264 26.9662 155.528 26.7702C155.803 26.5634 156.161 26.3732 156.601 26.199C156.985 26.0575 157.431 25.9269 157.936 25.8074C158.442 25.6877 159.108 25.5571 159.933 25.4155C160.463 25.3179 161.097 25.2063 161.835 25.0815C161.825 25.3918 161.807 25.7425 161.78 26.1337C161.747 26.7648 161.615 27.3196 161.385 27.7982C161.263 28.0483 161.033 28.3586 160.692 28.7284C160.362 29.0981 159.911 29.4303 159.339 29.7238Z" fill="#010D09"/>
<path fill-rule="evenodd" clip-rule="evenodd" d="M13.1582 15.6538H0.973999V20.9031C0.973999 28.7413 7.39688 35.0956 15.3199 35.0956C23.243 35.0956 29.666 28.7413 29.666 20.9031V15.6538H17.0887V7.29381C17.0887 3.96522 14.3611 1.26685 10.9965 1.26685C7.63192 1.26685 4.90439 3.96522 4.90439 7.29381H8.83478C8.83478 6.11268 9.80264 5.15521 10.9965 5.15521C12.1904 5.15521 13.1582 6.11268 13.1582 7.29381V15.6538ZM13.1582 19.5422V26.9301H17.0887V19.5422H25.7356V20.9031C25.7356 26.5941 21.0722 31.2073 15.3199 31.2073C9.5676 31.2073 4.90439 26.5941 4.90439 20.9031V19.5422H13.1582Z" fill="#010D09"/>
</g>
<defs>
<clipPath id="clip0_1_4382">
<rect width="166.457" height="35.8523" fill="white" transform="translate(0.802734)"/>
</clipPath>
</defs>
</svg>
