<svg width="105" height="105" viewBox="0 0 105 105" fill="none" xmlns="http://www.w3.org/2000/svg">
<rect width="105" height="105" rx="10.5" fill="white"/>
<path d="M73.1725 50.5299C75.8906 50.5299 78.094 48.3265 78.094 45.6084C78.094 42.8904 75.8904 40.687 73.1723 40.687C70.454 40.687 68.2502 42.8906 68.2502 45.6089V50.5299H73.1725ZM59.3909 50.5299C62.1091 50.5299 64.3127 48.3263 64.3127 45.608V31.8276C64.3127 29.1094 62.1091 26.9058 59.3909 26.9058C56.6726 26.9058 54.469 29.1094 54.469 31.8276V45.608C54.469 48.3263 56.6726 50.5299 59.3909 50.5299Z" fill="#2EB67D"/>
<path d="M31.828 54.4691C29.1099 54.4691 26.9065 56.6725 26.9065 59.3906C26.9065 62.1086 29.1101 64.312 31.8282 64.312C34.5464 64.312 36.7503 62.1084 36.7503 59.3902V54.4691H31.828ZM45.6096 54.4691C42.8913 54.4691 40.6878 56.6727 40.6878 59.391V73.1714C40.6878 75.8897 42.8913 78.0933 45.6096 78.0933C48.3279 78.0933 50.5315 75.8897 50.5315 73.1714V59.391C50.5315 56.6727 48.3279 54.4691 45.6096 54.4691Z" fill="#E01E5A"/>
<path d="M54.4694 73.1718C54.4694 75.8898 56.6728 78.0932 59.3908 78.0932C62.1089 78.0932 64.3123 75.8896 64.3123 73.1716C64.3123 70.4533 62.1087 68.2495 59.3904 68.2495L54.4694 68.2495L54.4694 73.1718ZM54.4694 59.3901C54.4694 62.1084 56.673 64.312 59.3912 64.312L73.1716 64.312C75.8899 64.312 78.0935 62.1084 78.0935 59.3901C78.0935 56.6719 75.8899 54.4683 73.1716 54.4683L59.3912 54.4683C56.673 54.4683 54.4694 56.6719 54.4694 59.3901Z" fill="#ECB22E"/>
<path d="M50.5309 31.8272C50.5309 29.1092 48.3275 26.9058 45.6094 26.9058C42.8914 26.9058 40.688 29.1094 40.688 31.8274C40.688 34.5457 42.8916 36.7495 45.6099 36.7495L50.5309 36.7495L50.5309 31.8272ZM50.5309 45.6089C50.5309 42.8906 48.3273 40.687 45.609 40.687L31.8286 40.687C29.1103 40.687 26.9067 42.8906 26.9067 45.6089C26.9067 48.3272 29.1103 50.5308 31.8286 50.5308L45.609 50.5308C48.3273 50.5308 50.5309 48.3272 50.5309 45.6089Z" fill="#36C5F0"/>
</svg>
