<svg width="105" height="105" viewBox="0 0 105 105" fill="none" xmlns="http://www.w3.org/2000/svg">
<rect width="105" height="105" rx="10.5" fill="white"/>
<g clip-path="url(#clip0_1_4646)">
<path d="M21.001 84L25.4537 67.8308C22.7008 63.0848 21.2567 57.7101 21.2717 52.2155C21.2717 34.9983 35.352 21 52.6363 21C61.0303 21 68.9128 24.2488 74.8247 30.1476C80.7516 36.0463 84.0159 43.8914 84.0009 52.2305C84.0009 69.4477 69.9207 83.446 52.6213 83.446H52.6062C47.3562 83.446 42.1965 82.1285 37.6084 79.6433L21.001 84ZM38.4057 73.999L39.3534 74.5679C43.3548 76.9334 47.9429 78.1761 52.6213 78.191H52.6363C67.0023 78.191 78.7058 66.5582 78.7058 52.2455C78.7058 45.3137 75.998 38.8011 71.079 33.8904C66.1599 28.9798 59.6012 26.2849 52.6363 26.2849C38.2703 26.27 26.5669 37.9028 26.5669 52.2155C26.5669 57.1112 27.9358 61.8871 30.5533 66.0192L31.17 67.0073L28.5375 76.5741L38.4057 73.999Z" fill="white"/>
<path d="M22.0989 82.9074L26.4012 67.2921C23.7386 62.7258 22.3396 57.5307 22.3396 52.2308C22.3546 35.6125 35.9384 22.0933 52.6361 22.0933C60.7442 22.0933 68.3409 25.2373 74.0573 30.9264C79.7736 36.6156 82.9176 44.1912 82.9176 52.2458C82.9176 68.8641 69.3187 82.3834 52.6361 82.3834H52.621C47.5516 82.3834 42.5723 81.1108 38.1497 78.7154L22.0989 82.9074Z" fill="url(#paint0_linear_1_4646)"/>
<path d="M21.001 84L25.4537 67.8308C22.7008 63.0848 21.2567 57.7101 21.2717 52.2155C21.2717 34.9983 35.352 21 52.6363 21C61.0303 21 68.9128 24.2488 74.8247 30.1476C80.7516 36.0463 84.0159 43.8914 84.0009 52.2305C84.0009 69.4477 69.9207 83.446 52.6213 83.446H52.6062C47.3562 83.446 42.1965 82.1285 37.6084 79.6433L21.001 84ZM38.4057 73.999L39.3534 74.5679C43.3548 76.9334 47.9429 78.1761 52.6213 78.191H52.6363C67.0023 78.191 78.7058 66.5582 78.7058 52.2455C78.7058 45.3137 75.998 38.8011 71.079 33.8904C66.1599 28.9798 59.6012 26.2849 52.6363 26.2849C38.2703 26.27 26.5669 37.9028 26.5669 52.2155C26.5669 57.1112 27.9358 61.8871 30.5533 66.0192L31.17 67.0073L28.5375 76.5741L38.4057 73.999Z" fill="url(#paint1_linear_1_4646)"/>
<path fill-rule="evenodd" clip-rule="evenodd" d="M44.7987 39.1603C44.212 37.8577 43.5952 37.8278 43.0387 37.8128C42.5874 37.7979 42.0609 37.7979 41.5344 37.7979C41.0079 37.7979 40.1654 37.9925 39.4434 38.771C38.7213 39.5495 36.7056 41.4359 36.7056 45.2836C36.7056 49.1163 39.5186 52.8292 39.9097 53.3532C40.3008 53.8772 45.3402 62.0067 53.2979 65.1358C59.9168 67.7408 61.2707 67.2168 62.6998 67.0821C64.1289 66.9473 67.333 65.1956 67.9949 63.3691C68.6418 61.5426 68.6418 59.9856 68.4462 59.6562C68.2506 59.3268 67.7241 59.1322 66.9419 58.7429C66.1597 58.3537 62.3087 56.4673 61.5866 56.1978C60.8646 55.9433 60.3381 55.8085 59.8266 56.5871C59.3001 57.3656 57.7958 59.1172 57.3445 59.6412C56.8932 60.1652 56.4269 60.2251 55.6446 59.8359C54.8624 59.4466 52.3352 58.6232 49.3416 55.9583C47.01 53.8922 45.4305 51.3321 44.9792 50.5535C44.5279 49.775 44.9341 49.3558 45.3252 48.9666C45.6712 48.6222 46.1074 48.0533 46.4985 47.6042C46.8896 47.155 47.025 46.8257 47.2808 46.3016C47.5365 45.7776 47.4162 45.3285 47.2206 44.9392C47.025 44.565 45.4907 40.7023 44.7987 39.1603Z" fill="white"/>
</g>
<defs>
<linearGradient id="paint0_linear_1_4646" x1="52.5066" y1="82.9044" x2="52.5066" y2="22.0911" gradientUnits="userSpaceOnUse">
<stop stop-color="#20B038"/>
<stop offset="1" stop-color="#60D66A"/>
</linearGradient>
<linearGradient id="paint1_linear_1_4646" x1="52.5071" y1="83.994" x2="52.5071" y2="21" gradientUnits="userSpaceOnUse">
<stop stop-color="#F9F9F9"/>
<stop offset="1" stop-color="white"/>
</linearGradient>
<clipPath id="clip0_1_4646">
<rect width="62.9999" height="62.9999" fill="white" transform="translate(21.001 21)"/>
</clipPath>
</defs>
</svg>
