<svg width="105" height="105" viewBox="0 0 105 105" fill="none" xmlns="http://www.w3.org/2000/svg">
<rect width="105" height="105" rx="10.5" fill="white"/>
<path d="M52.5 24.9375C37.2975 24.9375 24.9375 37.2975 24.9375 52.5C24.9375 67.7024 37.2975 80.0625 52.5 80.0625C67.7024 80.0625 80.0624 67.7024 80.0624 52.5C80.0624 37.2975 67.7024 24.9375 52.5 24.9375Z" fill="#FDDD4C"/>
<path d="M40.4293 59.6857C39.8266 58.7733 41.3424 57.3924 40.7259 56.2329C40.3705 55.5641 39.7895 55.1475 39.0919 55.06C38.4223 54.976 37.7325 55.2211 37.2928 55.7001C36.5987 56.4555 36.4908 57.4837 36.625 57.8476C36.6742 57.981 36.7514 58.0174 36.8067 58.0252C37.1847 58.0749 37.3975 57.1046 37.528 56.9025C37.8889 56.3454 38.7084 56.1769 39.2744 56.543C40.3475 57.2371 39.417 58.3589 39.4973 59.3063C39.5754 60.2289 40.1502 60.5996 40.6662 60.6386C41.1682 60.6577 41.5192 60.3787 41.6078 60.1752C41.8204 59.6892 40.9252 60.4365 40.4293 59.6857Z" fill="black"/>
<path d="M62.8511 51.3101C62.5696 51.2711 62.2619 51.272 61.9419 51.3101C61.6989 51.0034 61.4812 50.507 61.3583 49.9275C61.1398 48.8967 61.1626 48.15 61.7725 48.053C62.3825 47.9559 62.6773 48.5796 62.8958 49.6105C63.0424 50.3035 63.0143 50.9402 62.8511 51.3101Z" fill="black"/>
<path d="M56.1709 51.9233C56.195 52.1568 56.2036 52.393 56.1967 52.6105C56.7869 52.6451 57.2049 52.9254 57.3162 53.1032C57.3732 53.1951 57.3504 53.2548 57.332 53.2825C57.2709 53.3776 57.14 53.3629 56.8657 53.3321C56.6262 53.3052 56.3682 53.2816 56.1001 53.2939C55.9542 53.7413 55.5216 53.7832 55.2177 53.4523C55.0054 53.517 54.5883 53.7833 54.4641 53.4939C54.463 53.3503 54.6132 53.1416 54.8851 52.9572C54.6995 52.6031 54.5751 52.224 54.5016 51.8315C54.116 51.9009 53.7692 52.0089 53.4974 52.0935C53.3697 52.1333 52.8647 52.3614 52.8055 52.1043C52.766 51.9268 53.0425 51.634 53.3347 51.4226C53.6612 51.1908 54.0235 51.026 54.399 50.9309C54.3909 50.3718 54.5336 49.9817 54.9398 49.9171C55.4435 49.837 55.7556 50.2248 55.9717 50.9429C56.5804 51.112 57.1883 51.5313 57.4566 51.9649C57.561 52.1329 57.5812 52.2629 57.5137 52.3313C57.3449 52.5062 56.4103 51.9993 56.1709 51.9233Z" fill="black"/>
<path d="M60.1736 54.4363C60.5597 54.6234 60.9845 54.5498 61.1231 54.2717C61.2618 53.9937 61.0608 53.6168 60.6747 53.4297C60.2886 53.2426 59.8638 53.3163 59.7252 53.5943C59.5865 53.8724 59.7875 54.2492 60.1736 54.4363Z" fill="black"/>
<path d="M62.0743 53.0555C62.0814 52.6302 62.342 52.2906 62.6553 52.2958C62.9686 52.3019 63.2169 52.6501 63.2099 53.0746C63.2029 53.499 62.9422 53.8386 62.629 53.8334C62.3157 53.8282 62.0673 53.48 62.0743 53.0555Z" fill="black"/>
<path fill-rule="evenodd" clip-rule="evenodd" d="M70.5701 58.2643C70.5675 58.2554 70.5763 58.286 70.5701 58.2643C71.1993 58.2643 72.1875 58.9781 72.1875 60.7028C72.1875 62.4188 71.4661 64.3626 71.2959 64.794C68.6974 70.9409 62.4956 74.3626 55.1083 74.146C48.2211 73.9442 42.3476 70.3571 39.7772 64.509C38.223 64.5108 36.6206 63.836 35.4025 62.7705C34.1186 61.6478 33.3271 60.1951 33.1726 58.6801C33.0524 57.5002 33.1989 56.4027 33.5737 55.4455L32.1301 54.238C25.5237 48.7321 46.1861 26.0624 52.7941 31.752C52.8275 31.7805 55.0424 33.9254 55.0477 33.9306C58.234 32.5952 66.7712 30.0526 66.7808 35.9714C66.7843 37.9369 65.5153 40.229 63.482 42.3089C65.8319 44.46 65.2122 47.5156 65.5864 50.3191L66.4025 50.5426C67.9585 50.9731 69.0651 51.5474 69.6065 52.1087C70.148 52.6692 70.4165 53.2123 70.5139 53.849C70.6052 54.3627 70.5929 55.2697 69.9067 56.284C70.1538 56.9384 70.3793 57.5908 70.5701 58.2643ZM39.6605 62.9143C39.8913 62.9195 40.1203 62.9048 40.345 62.8666C42.7592 62.4604 43.391 59.872 42.9935 57.3305C42.5441 54.4606 40.5775 53.4488 39.2427 53.3769C38.8715 53.3579 38.5266 53.3908 38.2423 53.4471C35.8597 53.9209 34.5144 55.922 34.7794 58.5207C35.019 60.8725 37.4288 62.8554 39.6605 62.9143ZM34.2643 54.1522C35.0638 53.0062 36.3705 52.1772 37.8536 51.8922C39.7412 46.8905 42.8934 42.282 47.0654 39.1107C50.1614 36.5613 53.5006 34.7327 53.5006 34.7327C53.5006 34.7327 51.7024 32.6745 51.1592 32.5229C47.8183 31.6324 40.603 36.544 35.9957 43.0339C34.1318 45.6595 31.4631 50.3095 32.7391 52.7012C32.8962 52.9975 33.7869 53.7589 34.2643 54.1522ZM61.3504 61.7656C61.3557 61.8193 61.3223 61.8748 61.274 61.8947C61.274 61.8947 58.5896 63.1274 54.3255 61.8254C54.4788 63.1036 56.0288 63.588 57.1118 63.7632C62.3956 64.6606 67.3354 61.6782 68.4473 60.9271C68.6382 60.7982 68.4449 61.1297 68.4104 61.1783C67.0493 62.9117 63.3899 64.9188 58.6291 64.9179C56.5527 64.917 54.4773 64.1955 53.7156 63.0858C52.5335 61.3646 53.6568 58.8516 55.6269 59.1132C58.9571 59.4844 62.3711 59.2055 65.4539 57.793C68.1419 56.5612 69.1572 55.2064 69.0045 54.1089C68.7677 52.4079 66.2459 52.142 64.9712 51.7285C64.4166 51.5474 64.1428 51.4027 64.0805 50.3728C64.0533 49.9232 63.9743 48.3544 63.9454 47.7056C63.8945 46.57 63.7558 45.0168 62.78 44.3758C62.5255 44.2086 62.2429 44.128 61.9454 44.1124C61.7082 44.1011 61.5675 44.1337 61.4919 44.1512C61.4749 44.1551 61.4612 44.1583 61.4504 44.1601C60.9235 44.2485 60.6006 44.5151 60.2198 44.8295C60.1979 44.8476 60.1758 44.8658 60.1534 44.8842C58.9362 45.8856 57.9086 46.0493 56.7651 46.0008C56.409 45.9859 56.042 45.9504 55.6548 45.9128C55.2987 45.8783 54.9255 45.8422 54.5282 45.8189L54.0429 45.7912C52.1281 45.6942 50.0745 47.3262 49.7332 49.6443C49.3518 52.2317 50.798 53.8165 51.7386 54.8472C51.971 55.1019 52.1725 55.3228 52.308 55.5165C52.3948 55.6335 52.4958 55.7981 52.4958 55.9549C52.4958 56.142 52.3729 56.2901 52.2527 56.4166C50.2992 58.3994 49.6744 61.5499 50.4107 64.1755C50.5028 64.503 50.6195 64.8166 50.7573 65.1163C52.4843 69.1001 57.8428 70.9556 63.0766 69.2682C66.7447 68.0854 69.9856 65.2275 70.6456 61.2849C70.8027 60.2575 70.5719 59.8608 70.2577 59.6693C69.9251 59.4675 69.5267 59.5377 69.5267 59.5377C69.5267 59.5377 69.345 58.3102 68.8308 57.1945C67.3047 58.383 65.3407 59.218 63.8453 59.6416C61.4494 60.3201 58.8615 60.5842 56.3857 60.2643C55.3815 60.1345 54.7068 60.0474 54.4176 60.9748C57.7199 62.1684 61.2153 61.6574 61.2153 61.6574C61.2828 61.6504 61.3434 61.6989 61.3504 61.7656ZM51.8227 38.6014C50.0166 39.5135 48 41.1377 46.3624 43.0062C46.3045 43.0729 46.3905 43.1647 46.4616 43.1136C47.8762 42.0975 49.8157 41.1533 52.3562 40.5417C55.2022 39.8565 57.9419 40.1441 59.6154 40.5227C59.6997 40.5417 59.7524 40.3988 59.6778 40.3572C58.572 39.7448 56.8748 39.329 55.6708 39.3203C55.612 39.3195 55.5786 39.2519 55.6137 39.2051C55.8217 38.9288 56.1069 38.6559 56.3676 38.4584C56.4255 38.4134 56.3904 38.3207 56.3167 38.325C54.8189 38.4158 51.3979 39.9757 51.4102 39.9189C51.498 39.5031 51.7744 38.9539 51.9174 38.6975C51.9517 38.6369 51.885 38.5702 51.8227 38.6014Z" fill="black"/>
</svg>
