<svg width="105" height="105" viewBox="0 0 105 105" fill="none" xmlns="http://www.w3.org/2000/svg">
<rect width="105" height="105" rx="10.5" fill="white"/>
<rect x="20.999" y="21" width="62.9999" height="62.9999" rx="31.5" fill="#FFFC00"/>
<path d="M68.9267 62.5633C62.7756 59.5857 61.7953 54.9884 61.7516 54.6474C61.6988 54.2344 61.639 53.9096 62.0946 53.4895C62.5341 53.0835 64.4836 51.8769 65.0245 51.4993C65.9186 50.8742 66.3124 50.25 66.0221 49.4828C65.8192 48.952 65.3249 48.7521 64.8043 48.7521C64.6401 48.7526 64.4764 48.771 64.3162 48.8069C63.3338 49.02 62.3798 49.5122 61.8277 49.6452C61.7614 49.6623 61.6933 49.6715 61.6248 49.6726C61.3304 49.6726 61.2188 49.5417 61.2472 49.1875C61.3162 48.1138 61.4624 46.0181 61.2929 44.0604C61.0605 41.367 60.1918 40.0325 59.1617 38.8522C58.6634 38.2798 56.3495 35.8208 51.8842 35.8208C47.4188 35.8208 45.108 38.2798 44.6127 38.8451C43.5796 40.0254 42.7119 41.3599 42.4815 44.0533C42.312 46.011 42.4642 48.1056 42.5272 49.1804C42.5475 49.5173 42.444 49.6655 42.1496 49.6655C42.0811 49.6643 42.013 49.6551 41.9467 49.6381C41.3956 49.5051 40.4416 49.0129 39.4593 48.7998C39.299 48.7639 39.1353 48.7455 38.9711 48.745C38.4485 48.745 37.9563 48.948 37.7533 49.4757C37.463 50.2429 37.8548 50.8671 38.7519 51.4922C39.2928 51.8698 41.2424 53.0754 41.6818 53.4824C42.1365 53.9025 42.0776 54.2273 42.0248 54.6403C41.9812 54.9864 40.9998 59.5837 34.8498 62.5562C34.4895 62.7308 33.8765 63.1002 34.9573 63.6969C36.6542 64.6346 37.7837 64.5342 38.6616 65.0994C39.4065 65.5795 38.966 66.6146 39.508 66.9881C40.1737 67.4478 42.1415 66.9556 44.6837 67.7949C46.8149 68.4972 48.1099 70.4812 51.8892 70.4812C55.6686 70.4812 57.0011 68.488 59.0947 67.7949C61.6319 66.9556 63.6037 67.4478 64.2705 66.9881C64.8114 66.6146 64.372 65.5795 65.1169 65.0994C65.9947 64.5342 67.1233 64.6346 68.8211 63.6969C69.8999 63.1073 69.2869 62.7379 68.9267 62.5633Z" fill="white"/>
<path d="M71.6028 62.213C71.3268 61.462 70.8011 61.0601 70.2023 60.7272C70.0897 60.6612 69.9862 60.6085 69.8979 60.5679C69.7193 60.4755 69.5366 60.3862 69.3549 60.2918C67.4886 59.3023 66.0313 58.0541 65.0205 56.5744C64.7334 56.1579 64.4845 55.7163 64.2766 55.2551C64.1903 55.0085 64.1944 54.8684 64.2563 54.7406C64.3177 54.6421 64.3989 54.5574 64.4948 54.4919C64.8155 54.2798 65.1463 54.0647 65.3706 53.9196C65.7705 53.6608 66.0871 53.4558 66.2911 53.3106C67.0573 52.7748 67.5931 52.2055 67.928 51.5691C68.1617 51.1295 68.298 50.6447 68.3276 50.1477C68.3572 49.6508 68.2794 49.1532 68.0996 48.689C67.5921 47.3534 66.3307 46.5243 64.8023 46.5243C64.4799 46.524 64.1584 46.558 63.8432 46.6258C63.759 46.644 63.6748 46.6633 63.5926 46.6846C63.6068 45.7713 63.5865 44.8072 63.5053 43.8583C63.2171 40.5224 62.049 38.7738 60.8312 37.3794C60.0513 36.5056 59.1327 35.7664 58.1124 35.1914C56.2643 34.1359 54.1686 33.6001 51.8842 33.6001C49.5997 33.6001 47.5142 34.1359 45.6641 35.1914C44.6413 35.7665 43.7208 36.5073 42.9403 37.3835C41.7224 38.7779 40.5543 40.5295 40.2661 43.8623C40.1849 44.8112 40.1646 45.7804 40.1778 46.6887C40.0956 46.6674 40.0124 46.6481 39.9282 46.6298C39.613 46.5621 39.2915 46.528 38.9691 46.5284C37.4397 46.5284 36.1762 47.3575 35.6708 48.693C35.4902 49.1575 35.4116 49.6554 35.4405 50.1529C35.4694 50.6504 35.6051 51.1358 35.8383 51.5762C36.1742 52.2126 36.7101 52.7819 37.4763 53.3177C37.6792 53.4598 37.9969 53.6648 38.3967 53.9267C38.6129 54.0667 38.9285 54.2717 39.2381 54.4767C39.3464 54.5467 39.4384 54.6391 39.508 54.7477C39.573 54.8806 39.575 55.0237 39.4786 55.2876C39.2735 55.7391 39.0287 56.1714 38.7469 56.5795C37.7584 58.0257 36.3437 59.2516 34.5373 60.233C33.5802 60.7404 32.5857 61.0794 32.1655 62.2211C31.8489 63.0827 32.0559 64.063 32.8607 64.8891C33.1561 65.1975 33.4986 65.4568 33.8756 65.6574C34.6598 66.0884 35.4938 66.422 36.3589 66.6509C36.5374 66.697 36.7069 66.7728 36.8603 66.8752C37.1535 67.132 37.1119 67.5186 37.5027 68.0849C37.6988 68.3776 37.948 68.6309 38.2374 68.8319C39.0574 69.3981 39.9789 69.4337 40.9552 69.4712C41.8371 69.5047 42.8367 69.5433 43.9785 69.9198C44.4514 70.0761 44.9426 70.3785 45.5119 70.7317C46.8789 71.572 48.7503 72.7218 51.8822 72.7218C55.014 72.7218 56.8986 71.5659 58.2757 70.7225C58.841 70.3754 59.3292 70.0761 59.7889 69.9238C60.9306 69.5463 61.9302 69.5088 62.8122 69.4753C63.7884 69.4377 64.7099 69.4022 65.5299 68.8359C65.8727 68.5969 66.1583 68.285 66.3662 67.9225C66.6473 67.4445 66.6402 67.1107 66.9041 66.8772C67.0479 66.7797 67.2071 66.707 67.375 66.6621C68.2519 66.4325 69.0972 66.0957 69.8918 65.6594C70.2922 65.4446 70.6527 65.1624 70.9574 64.8252L70.9675 64.813C71.7226 64.0052 71.9124 63.0533 71.6028 62.213ZM68.8191 63.7089C67.1212 64.6466 65.9927 64.5461 65.1149 65.1114C64.3689 65.5914 64.8104 66.6266 64.2685 67C63.6027 67.4598 61.6349 66.9676 59.0927 67.8068C56.996 68.5 55.6584 70.4932 51.8872 70.4932C48.116 70.4932 46.8099 68.504 44.6787 67.8018C42.1416 66.9625 40.1697 67.4547 39.5029 66.995C38.962 66.6215 39.4015 65.5863 38.6566 65.1063C37.7777 64.541 36.6492 64.6415 34.9523 63.7089C33.8715 63.1121 34.4845 62.7427 34.8448 62.5682C40.9948 59.5906 41.9761 54.9933 42.0198 54.6523C42.0726 54.2392 42.1314 53.9145 41.6768 53.4943C41.2373 53.0884 39.2878 51.8817 38.7469 51.5042C37.8518 50.879 37.458 50.2549 37.7483 49.4877C37.9512 48.9569 38.4465 48.757 38.9661 48.757C39.1303 48.7575 39.294 48.7759 39.4542 48.8118C40.4366 49.0249 41.3906 49.5171 41.9416 49.65C42.008 49.6671 42.0761 49.6763 42.1446 49.6775C42.4389 49.6775 42.5424 49.5293 42.5221 49.1924C42.4592 48.1176 42.307 46.023 42.4765 44.0653C42.7089 41.3719 43.5766 40.0373 44.6077 38.8571C45.1029 38.2897 47.43 35.8308 51.8801 35.8308C56.3303 35.8308 58.6634 38.2796 59.1587 38.8449C60.1908 40.0252 61.0595 41.3597 61.2899 44.0531C61.4594 46.0108 61.3132 48.1065 61.2442 49.1802C61.2209 49.5344 61.3274 49.6653 61.6217 49.6653C61.6902 49.6642 61.7584 49.655 61.8247 49.6379C62.3768 49.5049 63.3307 49.0127 64.3131 48.7996C64.4734 48.7637 64.6371 48.7453 64.8013 48.7448C65.3239 48.7448 65.8161 48.9478 66.0191 49.4755C66.3093 50.2427 65.9176 50.8669 65.0215 51.492C64.4806 51.8695 62.531 53.0752 62.0916 53.4821C61.6359 53.9023 61.6958 54.2271 61.7486 54.6401C61.7922 54.9862 62.7726 59.5835 68.9236 62.556C69.2869 62.7376 69.8999 63.107 68.8191 63.7089Z" fill="black"/>
</svg>
