<svg width="66" height="60" viewBox="0 0 66 60" fill="none" xmlns="http://www.w3.org/2000/svg">
<path d="M14.9323 54.6416C14.544 56.0418 14.327 56.4372 13.9366 57.7336C13.8276 58.1696 13.5901 58.5626 13.2551 58.8621C12.92 59.1614 12.5028 59.3532 12.0574 59.4127C9.52038 59.7855 6.98047 60.2287 4.4002 59.8632C2.03298 59.5266 0.521131 58.0417 0.402822 55.6527C0.201412 51.5852 0.130471 47.5109 0.0256242 43.439C-0.00518369 42.2445 -0.0209415 41.0448 0.053876 39.8537C0.206098 37.4347 1.34046 36.146 3.75582 35.9816C6.40236 35.8004 9.06604 35.8447 11.7224 35.8413C12.7657 35.84 13.4111 36.5367 13.8711 37.3959C14.0981 37.82 14.2594 38.2784 14.4391 38.6903C16.0921 38.4573 17.6912 38.1632 19.3035 38.0193C22.2529 37.7563 25.1576 38.0711 27.9043 39.2143C31.102 40.5462 34.4007 40.8305 37.8055 40.5048C38.6427 40.4297 39.4859 40.4569 40.3167 40.5864C43.0417 41.0006 44.3513 43.0235 43.6705 45.6757C43.6161 45.887 43.5348 46.0899 43.3875 46.5362C44.3438 46.4669 45.1904 46.4345 46.0299 46.3397C49.6271 45.9328 52.9817 44.6511 56.3593 43.4509C57.8592 42.9181 59.3442 42.3261 60.876 41.9067C61.7746 41.6773 62.7045 41.5955 63.6292 41.6643C65.2679 41.7679 66.0314 42.9588 65.6122 44.5338C65.2682 45.8282 64.4773 46.8158 63.5093 47.6921C60.7033 50.2292 57.4171 51.923 53.874 53.1602C48.8859 54.902 43.7911 56.207 38.5348 56.8162C31.5641 57.665 24.3947 57.6736 17.7531 55.3936C16.8053 55.0656 15.8187 54.931 14.9323 54.6416ZM14.9812 52.1309C16.5863 52.5542 18.0735 52.9534 19.5634 53.3373C24.2217 54.5364 28.9572 55.2181 33.7623 54.8945C40.9333 54.4117 47.8048 52.5612 54.4679 49.9198C57.0339 48.9229 59.4048 47.4827 61.4722 45.6648C61.9224 45.219 62.3454 44.7469 62.7394 44.2506L62.5181 43.9177C61.5644 44.2004 60.5992 44.4502 59.659 44.772C56.3955 45.889 53.1644 47.1063 49.8753 48.1403C47.2788 48.9565 44.6017 49.2915 41.8759 48.7007C41.4891 48.6381 41.0923 48.7 40.743 48.8776C37.2808 50.6356 33.542 50.9522 29.7597 50.9727C28.878 50.9315 28.0058 50.7713 27.1671 50.4963C27.0342 50.4681 26.9089 50.413 26.7984 50.3343C26.6879 50.2556 26.5944 50.1554 26.5242 50.0394C26.4538 49.9234 26.408 49.7943 26.3894 49.6599C26.371 49.5255 26.3801 49.3886 26.4163 49.2579C26.5483 48.8123 26.8349 48.4281 27.2248 48.1747C27.7063 47.9495 28.2303 47.8288 28.762 47.8203C30.2187 47.7046 31.6796 47.6391 33.1389 47.5583C35.1841 47.4436 37.2091 47.1767 39.081 46.3131C39.8401 45.9675 40.5183 45.4665 41.0723 44.8429C41.7509 44.0528 41.3895 43.2761 40.3475 43.1708C39.5087 43.1112 38.6663 43.1206 37.8291 43.199C34.386 43.4201 31.0151 43.1832 27.8034 41.7739C27.194 41.5103 26.5698 41.2825 25.9337 41.0914C22.7428 40.0945 19.333 40.0334 16.1084 40.9151C14.8543 41.2517 14.8658 41.3061 14.9323 42.5642C15.0379 44.598 15.1775 46.6315 15.2147 48.6668C15.2352 49.7647 15.0729 50.8658 14.9804 52.1314L14.9812 52.1309ZM11.2921 38.3401C9.16931 38.3401 7.14175 38.3204 5.11419 38.346C3.29814 38.3688 2.84536 38.8314 2.80575 40.6441C2.70427 45.2889 2.55282 49.9338 2.54687 54.5789C2.54454 56.5464 3.52155 57.1877 4.91796 57.0831C6.76948 56.9446 8.61999 56.7771 10.4637 56.5555C11.4364 56.4384 11.6077 56.1369 11.5904 55.1156C11.5333 54.277 11.531 53.4354 11.5834 52.5964C12.0753 48.3034 11.7278 44.0189 11.5145 39.7326C11.4643 39.265 11.3899 38.8001 11.2914 38.3401H11.2921Z" fill="#F6F6EB"/>
<path d="M37.415 15.9405C40.2461 17.8774 41.2946 20.7393 41.6105 24.0012C42.1637 29.7161 38.7723 33.2765 34.7951 34.7966C31.5185 36.0501 28.1577 36.6865 24.6709 35.6629C20.6274 34.4759 18.2429 31.2326 18.0938 27.0292C17.9074 21.7772 21.0562 16.9917 26.2181 14.8824C29.361 13.5996 35.4662 14.6075 37.415 15.9405ZM27.8046 33.261C29.5163 33.465 32.6314 32.7297 34.1731 32.0517C37.0174 30.8008 39.1009 28.4983 38.6168 24.2937C38.2129 20.7869 36.4328 18.1155 33.0376 17.4124C31.2656 17.0456 27.8043 16.8809 26.0434 17.6281C22.1986 19.259 20.7056 23.1164 20.906 27.3318C21.1022 31.4537 25.2555 32.9573 27.8046 33.2615V33.261Z" fill="#F6F6EB"/>
<path d="M6.99504 44.0707C5.84276 44.0847 5.03347 43.3443 4.99231 42.2389C4.94545 40.9719 5.94445 39.8613 7.13737 39.8541C8.52239 39.846 9.59263 40.6566 9.60169 41.718C9.61127 42.8638 8.29048 44.0547 6.99504 44.0707Z" fill="#F6F6EB"/>
<path d="M30.453 21.4118V24.5564C30.9115 24.729 31.3402 24.8717 31.7536 25.0498C33.3799 25.7488 33.7799 27.2774 32.7138 28.6829C32.2737 29.2618 31.9278 29.4961 30.6327 30.0907C30.5105 30.712 30.3875 31.3238 30.2702 31.937C30.2053 32.2788 30.0422 32.5433 29.6691 32.5519C29.2756 32.5612 29.1374 32.2412 29.0672 31.9319C28.9357 31.3517 28.8459 30.7622 28.7265 30.1091C28.2504 29.982 27.7319 29.8474 27.216 29.7039C26.9661 29.6452 26.7215 29.5659 26.4846 29.4671C26.2791 29.3956 26.1072 29.2509 26.0018 29.0604C25.8964 28.8701 25.8649 28.6474 25.9133 28.4352C25.9971 28.0235 26.3505 27.7634 26.8949 27.7988C27.488 27.8377 28.0773 27.9384 28.6533 28.0103C28.8938 27.3471 28.9215 26.9523 28.8164 25.8231C28.4151 25.6727 27.9809 25.5399 27.5737 25.3514C25.921 24.5893 25.5569 22.9384 26.728 21.5425C27.2113 20.9347 27.8481 20.4668 28.5727 20.1875C28.7651 20.1358 28.9334 20.0191 29.0491 19.8573C29.1648 19.6954 29.221 19.4984 29.2078 19.2998C29.2119 18.9866 29.28 18.6775 29.4082 18.3916C29.4633 18.2995 29.5399 18.2221 29.6313 18.1659C29.7227 18.1097 29.8263 18.0764 29.9332 18.0688C30.037 18.0982 30.132 18.1518 30.2107 18.2253C30.2894 18.2988 30.3497 18.3899 30.386 18.4913C30.4577 18.8569 30.4965 19.2282 30.5024 19.6006C30.8962 19.6903 31.285 19.8001 31.6674 19.9297C32.2779 20.1699 32.5668 20.6434 32.4925 21.183C32.4265 21.6606 32.1668 21.8221 31.7213 21.6259C31.3316 21.455 30.9684 21.2008 30.453 21.4118ZM28.9463 22.0352C28.1096 22.5315 27.6819 23.0593 27.8365 23.4525C28.0211 23.9224 28.4495 24.0407 28.9463 24.1054V22.0352ZM30.5094 27.9285C31.0653 27.7232 31.5747 27.4778 31.5579 26.9147C31.5437 26.4425 31.0233 26.3452 30.6 26.2815C30.5757 26.2779 30.5483 26.2996 30.4408 26.3398C30.4408 26.6685 30.4349 27.0284 30.4437 27.388C30.4476 27.5454 30.4807 27.7023 30.5094 27.9285Z" fill="#F6F6EB"/>
<path d="M51.6231 7.08227V10.2272C52.0816 10.3998 52.51 10.5424 52.9235 10.719C54.5498 11.418 54.95 12.947 53.8837 14.3524C53.4436 14.931 53.0977 15.1653 51.8028 15.7602C51.6806 16.3815 51.5573 16.7344 51.4403 17.3474C51.3751 17.6891 51.212 17.9538 50.8392 17.9626C50.4454 17.9716 50.3072 17.6519 50.2373 17.3425C50.1055 16.7624 50.016 16.4318 49.8964 15.7786C49.4203 15.6513 48.902 15.5169 48.3858 15.3734C48.136 15.3145 47.8913 15.2352 47.6545 15.1363C47.4489 15.0648 47.277 14.92 47.1716 14.7296C47.0663 14.5392 47.0347 14.3166 47.0834 14.1044C47.167 13.6931 47.5206 13.4329 48.0648 13.4683C48.6581 13.5069 49.2473 13.6079 49.8234 13.6798C50.0636 13.0166 50.0913 12.6215 49.9865 11.4925C49.5852 11.3419 49.151 11.2093 48.7425 11.0209C47.0898 10.2587 46.7258 8.60785 47.8968 7.21197C48.3801 6.60409 49.0172 6.13629 49.7418 5.85695C49.9339 5.80515 50.1022 5.68842 50.2179 5.52657C50.3336 5.36474 50.3898 5.16781 50.3768 4.96925C50.3805 4.656 50.4486 4.34695 50.577 4.06115C50.6321 3.96904 50.7085 3.89155 50.8001 3.83532C50.8915 3.77907 50.9951 3.74573 51.1022 3.73804C51.2058 3.76745 51.3008 3.82114 51.3795 3.89466C51.4582 3.96818 51.5183 4.05944 51.5548 4.16082C51.6262 4.52643 51.6653 4.89762 51.6715 5.2701C52.0653 5.35954 52.4541 5.46938 52.8365 5.59913C53.4467 5.83912 53.7358 6.31264 53.6613 6.85215C53.5953 7.33004 53.3356 7.4913 52.8901 7.29507C52.5017 7.12524 52.1383 6.87128 51.6231 7.08227ZM50.1164 7.70565C49.2797 8.20219 48.8518 8.73005 49.0063 9.12329C49.1909 9.5929 49.6194 9.71146 50.1164 9.77618V7.70565ZM51.6793 13.5994C52.2351 13.3941 52.7446 13.1484 52.7277 12.5853C52.7138 12.1131 52.1932 12.0158 51.7699 11.9523C51.7455 11.9487 51.7181 11.9704 51.6107 12.0106C51.6107 12.3393 51.6047 12.6992 51.6133 13.0585C51.6174 13.2162 51.6508 13.3731 51.6793 13.5994Z" fill="#F6F6EB"/>
<path d="M58.307 1.65004C61.1381 3.58698 62.1866 6.44897 62.5024 9.71087C63.0556 15.4257 59.6643 18.9861 55.6871 20.5062C52.4104 21.7595 49.0499 22.396 45.563 21.3724C41.5195 20.1854 39.1352 16.9419 38.9859 12.7385C38.7995 7.48654 41.948 2.70138 47.1101 0.591761C50.2529 -0.690219 56.3581 0.317837 58.307 1.65004ZM48.697 18.9705C50.4088 19.1748 53.5234 18.4393 55.0652 17.7615C57.9098 16.5106 59.9928 14.2079 59.5087 10.0034C59.1048 6.49684 57.325 3.82516 53.9298 3.12229C52.1578 2.75546 48.697 2.59081 46.9359 3.33794C43.091 4.96889 41.5977 8.82627 41.7981 13.0414C41.9941 17.1638 46.1476 18.6674 48.697 18.9716V18.9705Z" fill="#F6F6EB"/>
</svg>
