<svg width="63" height="60" viewBox="0 0 63 60" fill="none" xmlns="http://www.w3.org/2000/svg">
<path d="M57.0911 4.97594C54.8791 5.27987 53.0419 5.51744 51.2101 5.78942C49.9746 5.9728 48.7489 6.21909 47.514 6.40704C47.0791 6.49468 46.6324 6.50654 46.1935 6.44216C45.6486 6.33046 45.1673 5.96827 45.177 5.36227C45.1735 4.92855 45.3272 4.50835 45.6097 4.17937C46.0186 3.83677 46.5001 3.5919 47.0179 3.46329C47.9585 3.18943 48.9259 3.00677 49.8826 2.78983C52.926 2.09603 55.9694 1.40217 59.0131 0.708201C61.3541 0.171212 62.7124 1.04269 62.8562 3.4347C62.9844 5.56977 62.8852 7.72105 62.8272 9.86364C62.7693 12.0062 62.6544 14.1456 62.5297 16.2847C62.4683 16.8475 62.3735 17.4061 62.2461 17.9577C61.4992 18.1223 61.2073 17.7698 61.0831 17.3302C60.7443 16.1298 60.4454 14.9172 60.1632 13.7017C59.9217 12.6662 59.7272 11.6201 59.4554 10.3061C58.8996 10.8801 58.4303 11.256 58.095 11.7272C54.885 16.2409 51.7069 20.7771 48.4996 25.2926C46.9994 27.4048 45.4731 29.4986 43.9214 31.5735C43.3508 32.3731 42.7007 33.1128 41.9812 33.7811C40.7844 34.8403 39.4347 34.8819 38.0356 33.9725C37.2897 33.4879 36.6212 32.8846 35.9161 32.3347C33.8074 30.6928 31.6684 29.0966 29.1871 27.7746C28.7294 28.1915 28.2948 28.6332 27.8857 29.0977C24.3416 33.5837 20.807 38.0772 17.2818 42.578C15.7349 44.5437 14.2019 46.5217 12.6048 48.446C12.0352 49.1295 11.3742 49.7312 10.6404 50.2341C9.73956 50.8501 9.28402 50.635 8.23584 49.2992C8.41645 48.8342 8.63569 48.3853 8.89125 47.9568C14.2682 40.2724 19.6564 32.5959 25.056 24.9273C27.3349 21.6981 28.5706 21.3832 31.9898 23.2871C34.014 24.4147 35.9255 25.7437 37.8824 26.9906C38.4028 27.3224 38.9035 27.6852 39.5393 28.1201L57.0911 4.97594Z" fill="#F6F6EB"/>
<path d="M59.347 58.9668C59.3167 58.8549 59.2974 58.7397 59.2794 58.6336C59.2319 58.3555 59.1871 58.0926 58.9658 57.9852C58.3917 57.7119 57.7928 57.4936 57.1777 57.3336C53.1164 56.244 48.8878 56.0051 44.9032 55.8536C44.1091 55.8236 43.3153 55.7927 42.5212 55.7613C35.4807 55.4842 28.2 55.1974 21.0244 55.6429C16.8258 55.9033 12.5535 56.1229 8.42191 56.3353C7.27098 56.3947 6.12013 56.4543 4.96939 56.5136C4.69352 56.5211 4.41748 56.5066 4.14389 56.4706L3.92792 56.4492C3.90914 56.3794 3.89009 56.3136 3.87212 56.2518C3.8208 56.1125 3.79209 55.9656 3.78707 55.8171C3.93141 53.9352 4.08084 52.0534 4.23537 50.172C4.46797 47.2927 4.70862 44.3151 4.91627 41.3837C5.66424 30.8275 5.73021 21.5215 5.11826 12.934C4.8261 9.08168 4.15612 5.26742 3.11798 1.54633C3.00549 1.20074 2.84278 0.873548 2.63505 0.575401C2.55618 0.449746 2.4784 0.325808 2.41053 0.201764L2.30078 0L2.08483 0.0773495C1.03075 0.454584 1.03477 1.24298 1.03853 1.81863V1.94449C1.0235 6.23719 1.01277 10.5296 1.00634 14.8217C1.00446 15.8565 1.00982 16.8913 1.01492 17.9261C1.02538 19.9852 1.03611 22.1146 0.988092 24.2054C0.848318 30.3861 0.664547 36.3531 0.438922 43.5101C0.333488 46.8516 0.19532 50.2762 0.0281807 53.6888C-0.041036 55.1027 -0.0327386 56.9668 0.652185 58.85L0.679008 58.9225L0.740181 58.9701C2.04269 59.9836 3.3597 59.9879 4.41861 59.9825C5.78489 59.9825 7.15133 59.9793 8.51796 59.9729C10.1008 59.9683 11.6837 59.9648 13.2665 59.9632C23.3958 59.9656 33.5249 59.971 43.6541 59.9788H45.4414C46.2672 59.9788 47.0935 59.9823 47.9203 59.9895C48.7788 59.9946 49.6524 60 50.5294 60C51.4263 60 52.3269 59.9944 53.2211 59.9774C55.2101 59.9235 57.1908 59.6966 59.1407 59.2987L59.424 59.245L59.347 58.9668Z" fill="#F6F6EB"/>
</svg>
