<svg width="105" height="105" viewBox="0 0 105 105" fill="none" xmlns="http://www.w3.org/2000/svg">
<rect width="105" height="105" rx="10.5" fill="white"/>
<rect x="21" y="21" width="62.9999" height="62.9999" rx="31.5" fill="#5865F2"/>
<path d="M63.9865 42.1742C67.6987 47.6708 69.532 53.8708 68.8467 61.0085C68.8438 61.0387 68.8282 61.0664 68.8035 61.0846C65.9924 63.1635 63.2687 64.4251 60.5833 65.2617C60.5624 65.2681 60.54 65.2678 60.5193 65.2607C60.4986 65.2537 60.4806 65.2403 60.4678 65.2224C59.8474 64.3531 59.2837 63.4365 58.7898 62.4741C58.7615 62.4174 58.7874 62.3491 58.8457 62.3268C59.741 61.9871 60.5923 61.5799 61.4112 61.0979C61.4757 61.0598 61.4798 60.9667 61.4202 60.922C61.2464 60.7921 61.0743 60.6555 60.9095 60.519C60.8787 60.4938 60.8372 60.4888 60.8023 60.5058C55.4861 62.9781 49.6624 62.9781 44.2833 60.5058C44.2484 60.49 44.2069 60.4954 44.1769 60.5202C44.0125 60.6568 43.84 60.7921 43.6678 60.922C43.6083 60.9667 43.6132 61.0598 43.6781 61.0979C44.497 61.5708 45.3483 61.9871 46.2423 62.3285C46.3003 62.3508 46.3278 62.4174 46.299 62.4741C45.8159 63.4378 45.2521 64.3543 44.6202 65.2237C44.5927 65.2588 44.5475 65.275 44.5048 65.2617C41.8321 64.4251 39.1084 63.1635 36.2973 61.0846C36.2738 61.0664 36.257 61.0375 36.2545 61.0073C35.6818 54.8333 36.8491 48.5819 41.1102 42.1729C41.1204 42.156 41.1361 42.1427 41.1541 42.1349C43.2508 41.1658 45.497 40.4528 47.8447 40.0457C47.8874 40.0391 47.9302 40.0589 47.9524 40.097C48.2424 40.6142 48.574 41.2775 48.7983 41.8196C51.273 41.4389 53.7863 41.4389 56.3127 41.8196C56.5371 41.2891 56.8571 40.6142 57.146 40.097C57.1562 40.0781 57.1722 40.063 57.1915 40.0538C57.2109 40.0446 57.2326 40.0417 57.2536 40.0457C59.6025 40.4541 61.8488 41.167 63.9438 42.1349C63.9623 42.1427 63.9775 42.156 63.9865 42.1742ZM50.0564 53.913C50.0823 52.0879 48.761 50.5776 47.1023 50.5776C45.4572 50.5776 44.1485 52.0746 44.1485 53.913C44.1485 55.751 45.483 57.2481 47.1023 57.2481C48.7478 57.2481 50.0564 55.751 50.0564 53.913ZM60.9781 53.913C61.004 52.0879 59.6827 50.5776 58.0244 50.5776C56.3789 50.5776 55.0703 52.0746 55.0703 53.913C55.0703 55.751 56.4048 57.2481 58.0244 57.2481C59.6827 57.2481 60.9781 55.751 60.9781 53.913Z" fill="white"/>
</svg>
