<svg width="105" height="105" viewBox="0 0 105 105" fill="none" xmlns="http://www.w3.org/2000/svg">
<rect width="105" height="105" rx="10.5" fill="white"/>
<rect x="23.0996" y="23.1006" width="58.7999" height="58.7999" rx="29.4" fill="#0078D7"/>
<path d="M52.576 63.867C46.3019 63.867 43.4353 60.6709 43.4353 58.3267C43.4345 57.7674 43.664 57.2325 44.0699 56.8478C44.4758 56.4631 45.0222 56.2625 45.5806 56.2933C48.2668 56.2933 47.5642 60.3227 52.576 60.3227C55.1379 60.3227 56.6427 58.7806 56.6427 57.3318C56.6427 56.4612 56.1452 55.4663 54.4539 55.0683L48.8575 53.6568C44.3618 52.5127 43.5783 50.013 43.5783 47.6936C43.5783 42.8808 47.9808 41.1397 52.1718 41.1397C56.0333 41.1397 60.6223 43.2725 60.6223 46.1577C60.6223 47.4014 59.5838 48.0667 58.3775 48.0667C56.083 48.0667 56.4685 44.8457 51.8547 44.8457C49.5602 44.8457 48.3539 45.9215 48.3539 47.4262C48.3539 48.931 50.1385 49.4409 51.7054 49.7829L55.8343 50.7156C60.3611 51.7354 61.5674 54.3906 61.5674 56.9338C61.5674 60.845 58.5392 63.867 52.5698 63.867H52.576ZM69.8997 55.5907C70.079 54.564 70.1684 53.5238 70.1671 52.4816C70.1891 47.2466 67.8889 42.2713 63.8866 38.8969C59.8843 35.5224 54.5918 34.0961 49.4358 35.0024C47.8511 34.09 46.0537 33.6117 44.225 33.6157C40.4715 33.6387 37.0117 35.6504 35.1349 38.9011C33.2582 42.1518 33.246 46.154 35.103 49.4161C34.0668 55.1096 35.8819 60.9499 39.9628 65.0531C44.0437 69.1563 49.874 71.0032 55.5731 69.9981C57.156 70.9098 58.9511 71.388 60.7777 71.3848C64.5293 71.3606 67.9871 69.3498 69.8634 66.101C71.7398 62.8522 71.7536 58.8523 69.8997 55.5907Z" fill="white"/>
</svg>
