<svg width="100" height="100" viewBox="0 0 100 100" fill="none" xmlns="http://www.w3.org/2000/svg">
<path d="M52.8811 33.5413C38.7225 33.5413 27.3025 43.2352 22.9854 55.5646C22.0349 58.2797 21.7358 61.252 21.7358 64.2946C21.7358 81.4955 35.6801 95.4398 52.8811 95.4398H68.8532C70.6645 95.4398 72.4367 95.2765 74.1632 94.9796L83.5684 99.6516C85.9067 100.813 88.598 98.9076 88.2794 96.3163L87.417 89.3026C95.0513 83.6263 99.9984 74.5389 99.9984 64.2946C99.9984 47.3827 86.519 33.6192 69.7179 33.1611L52.8811 33.5413Z" fill="url(#paint0_linear_1_4790)"/>
<path d="M87.4183 89.3019L88.2791 96.3156C88.5987 98.9078 85.9065 100.814 83.5693 99.6509L74.1634 94.9803C72.436 95.2764 70.6654 95.4392 68.8536 95.4392H62.8537L22.9793 55.5628L22.9753 55.5726C26.6655 43.2354 38.7086 33.5413 52.8811 33.5413L69.7182 33.1609C77.9748 33.386 85.4295 36.8248 90.8771 42.2707C96.5124 47.9079 99.9987 55.6942 99.9987 64.2941C99.9987 74.5392 95.0516 83.6274 87.4183 89.3019Z" fill="url(#paint1_linear_1_4790)"/>
<path d="M97.874 75.6204H23.863C28.3938 87.2213 39.6787 95.4401 52.8839 95.4401H68.8561C70.6674 95.4401 72.4396 95.2768 74.166 94.9799L83.5713 99.6519C85.9095 100.813 88.6009 98.908 88.2823 96.3166L87.4199 89.3029C92.076 85.8409 95.7297 81.1086 97.874 75.6204Z" fill="url(#paint2_linear_1_4790)"/>
<path d="M27.9393 0H42.2671C57.6975 0 70.2065 12.5088 70.2065 27.9393C70.2065 29.724 70.0392 31.4697 69.7192 33.1613C67.2738 46.096 55.9128 55.6824 42.2671 55.6824H27.9391C26.3142 55.6824 24.7246 55.732 23.1756 55.4657L14.7384 59.6567C12.6408 60.6987 10.2264 58.9893 10.5123 56.6648L11.2859 50.373C4.43783 45.2813 0 37.1291 0 27.9393C0 12.5088 12.5088 0 27.9393 0Z" fill="#5028DD"/>
<path d="M1.59473 37.2549C3.46315 42.5374 6.87314 47.0915 11.2869 50.3733L10.5133 56.665C10.2274 58.9895 12.642 60.6989 14.7394 59.657L23.1766 55.4658C24.7255 55.7321 26.3152 55.6825 27.9399 55.6825H42.268C54.4316 55.6825 64.5818 48.1047 68.4183 37.2549H1.59473Z" fill="#5028DD"/>
<path d="M50.316 30.5578C53.3313 30.5578 55.7758 28.1133 55.7758 25.098C55.7758 22.0826 53.3313 19.6382 50.316 19.6382C47.3006 19.6382 44.8562 22.0826 44.8562 25.098C44.8562 28.1133 47.3006 30.5578 50.316 30.5578Z" fill="url(#paint3_linear_1_4790)"/>
<path d="M35.1041 30.5578C38.1194 30.5578 40.5639 28.1133 40.5639 25.098C40.5639 22.0826 38.1194 19.6382 35.1041 19.6382C32.0887 19.6382 29.6443 22.0826 29.6443 25.098C29.6443 28.1133 32.0887 30.5578 35.1041 30.5578Z" fill="url(#paint4_linear_1_4790)"/>
<path d="M19.8912 30.5578C22.9065 30.5578 25.351 28.1133 25.351 25.098C25.351 22.0826 22.9065 19.6382 19.8912 19.6382C16.8758 19.6382 14.4314 22.0826 14.4314 25.098C14.4314 28.1133 16.8758 30.5578 19.8912 30.5578Z" fill="url(#paint5_linear_1_4790)"/>
<path d="M76.0811 71.4167C79.0965 71.4167 81.5409 68.9722 81.5409 65.9569C81.5409 62.9415 79.0965 60.4971 76.0811 60.4971C73.0658 60.4971 70.6213 62.9415 70.6213 65.9569C70.6213 68.9722 73.0658 71.4167 76.0811 71.4167Z" fill="url(#paint6_linear_1_4790)"/>
<path d="M60.8682 71.4167C63.8836 71.4167 66.328 68.9722 66.328 65.9569C66.328 62.9415 63.8836 60.4971 60.8682 60.4971C57.8529 60.4971 55.4084 62.9415 55.4084 65.9569C55.4084 68.9722 57.8529 71.4167 60.8682 71.4167Z" fill="url(#paint7_linear_1_4790)"/>
<path d="M45.6563 71.4167C48.6717 71.4167 51.1161 68.9722 51.1161 65.9569C51.1161 62.9415 48.6717 60.4971 45.6563 60.4971C42.641 60.4971 40.1965 62.9415 40.1965 65.9569C40.1965 68.9722 42.641 71.4167 45.6563 71.4167Z" fill="url(#paint8_linear_1_4790)"/>
<path d="M69.7171 33.1619C69.4304 33.154 69.143 33.1495 68.8545 33.1495H52.8826C38.7128 33.1495 26.755 42.6128 22.9797 55.5636L23.176 55.4662C24.7248 55.7324 26.3146 55.8789 27.9393 55.8789H42.2673C55.9126 55.8787 67.2712 46.096 69.7171 33.1619Z" fill="url(#paint9_linear_1_4790)"/>
<defs>
<linearGradient id="paint0_linear_1_4790" x1="60.8671" y1="43.5393" x2="60.8671" y2="84.8343" gradientUnits="userSpaceOnUse">
<stop stop-color="#5636C7" stop-opacity="0"/>
<stop offset="1" stop-color="#321CA4"/>
</linearGradient>
<linearGradient id="paint1_linear_1_4790" x1="81.5036" y1="73.499" x2="42.1119" y2="34.1074" gradientUnits="userSpaceOnUse">
<stop stop-color="#5636C7"/>
<stop offset="1" stop-color="#321CA4" stop-opacity="0"/>
</linearGradient>
<linearGradient id="paint2_linear_1_4790" x1="60.8686" y1="79.6829" x2="60.8686" y2="95.9401" gradientUnits="userSpaceOnUse">
<stop stop-color="#5028DD" stop-opacity="0"/>
<stop offset="1" stop-color="#321CA4"/>
</linearGradient>
<linearGradient id="paint3_linear_1_4790" x1="53.3336" y1="22.0803" x2="45.5831" y2="29.8309" gradientUnits="userSpaceOnUse">
<stop stop-color="#EEF4FF"/>
<stop offset="1" stop-color="#CFE7FD"/>
</linearGradient>
<linearGradient id="paint4_linear_1_4790" x1="38.1217" y1="22.0803" x2="30.3711" y2="29.8309" gradientUnits="userSpaceOnUse">
<stop stop-color="#EEF4FF"/>
<stop offset="1" stop-color="#CFE7FD"/>
</linearGradient>
<linearGradient id="paint5_linear_1_4790" x1="22.909" y1="22.0803" x2="15.1585" y2="29.8309" gradientUnits="userSpaceOnUse">
<stop stop-color="#EEF4FF"/>
<stop offset="1" stop-color="#CFE7FD"/>
</linearGradient>
<linearGradient id="paint6_linear_1_4790" x1="79.0988" y1="62.9392" x2="71.3482" y2="70.6898" gradientUnits="userSpaceOnUse">
<stop stop-color="#EEF4FF"/>
<stop offset="1" stop-color="#CFE7FD"/>
</linearGradient>
<linearGradient id="paint7_linear_1_4790" x1="63.8859" y1="62.9392" x2="56.1353" y2="70.6898" gradientUnits="userSpaceOnUse">
<stop stop-color="#EEF4FF"/>
<stop offset="1" stop-color="#CFE7FD"/>
</linearGradient>
<linearGradient id="paint8_linear_1_4790" x1="48.674" y1="62.9392" x2="40.9234" y2="70.6898" gradientUnits="userSpaceOnUse">
<stop stop-color="#EEF4FF"/>
<stop offset="1" stop-color="#CFE7FD"/>
</linearGradient>
<linearGradient id="paint9_linear_1_4790" x1="46.3483" y1="38.6929" x2="46.3483" y2="59.1454" gradientUnits="userSpaceOnUse">
<stop stop-color="#9D66D6"/>
<stop offset="1" stop-color="#453D81"/>
</linearGradient>
</defs>
</svg>
