<svg width="15" height="15" viewBox="0 0 15 15" fill="none" xmlns="http://www.w3.org/2000/svg">
<path d="M7.25806 1.30783C9.19597 1.30783 9.42546 1.31509 10.191 1.35C10.6513 1.35563 11.1072 1.44015 11.5389 1.59988C11.852 1.72063 12.1363 1.90558 12.3736 2.14286C12.6109 2.38013 12.7958 2.66446 12.9166 2.97753C13.0763 3.40926 13.1608 3.86517 13.1665 4.32546C13.201 5.09101 13.2086 5.32051 13.2086 7.25841C13.2086 9.19631 13.2014 9.42581 13.1665 10.1914C13.1608 10.6516 13.0763 11.1076 12.9166 11.5393C12.7958 11.8524 12.6109 12.1367 12.3736 12.374C12.1363 12.6112 11.852 12.7962 11.5389 12.9169C11.1072 13.0767 10.6513 13.1612 10.191 13.1668C9.42581 13.2014 9.19631 13.209 7.25806 13.209C5.31982 13.209 5.09032 13.2017 4.32512 13.1668C3.86483 13.1612 3.40891 13.0767 2.97719 12.9169C2.66411 12.7962 2.37978 12.6112 2.14251 12.374C1.90524 12.1367 1.72028 11.8524 1.59954 11.5393C1.43981 11.1076 1.35529 10.6516 1.34965 10.1914C1.31509 9.42581 1.30749 9.19631 1.30749 7.25841C1.30749 5.32051 1.31475 5.09101 1.34965 4.32546C1.35529 3.86517 1.43981 3.40926 1.59954 2.97753C1.72028 2.66446 1.90524 2.38013 2.14251 2.14286C2.37978 1.90558 2.66411 1.72063 2.97719 1.59988C3.40891 1.44015 3.86483 1.35563 4.32512 1.35C5.09067 1.31544 5.32016 1.30783 7.25806 1.30783ZM7.25806 0C5.28802 0 5.03986 0.00829491 4.26567 0.0435484C3.66327 0.0555304 3.06726 0.16959 2.503 0.380876C2.01895 0.563249 1.58053 0.849043 1.21832 1.21832C0.84871 1.58066 0.562671 2.01933 0.380184 2.50369C0.168899 3.06795 0.0548392 3.66396 0.0428572 4.26636C0.00829496 5.03986 0 5.28802 0 7.25806C0 9.22811 0.00829491 9.47627 0.0435484 10.2505C0.0555304 10.8529 0.16959 11.4489 0.380876 12.0131C0.56316 12.4974 0.848959 12.9361 1.21832 13.2985C1.58073 13.6679 2.01939 13.9537 2.50369 14.1359C3.06795 14.3472 3.66396 14.4613 4.26636 14.4733C5.04055 14.5078 5.28767 14.5168 7.25876 14.5168C9.22984 14.5168 9.47696 14.5085 10.2512 14.4733C10.8536 14.4613 11.4496 14.3472 12.0138 14.1359C12.4958 13.9491 12.9335 13.6637 13.2989 13.2981C13.6643 12.9324 13.9494 12.4946 14.1359 12.0124C14.3472 11.4482 14.4613 10.8522 14.4733 10.2498C14.5078 9.47627 14.5161 9.22811 14.5161 7.25806C14.5161 5.28802 14.5078 5.03986 14.4726 4.26567C14.4606 3.66326 14.3465 3.06726 14.1353 2.503C13.953 2.0187 13.6672 1.58004 13.2978 1.21763C12.9354 0.848268 12.4967 0.562468 12.0124 0.380184C11.4482 0.168899 10.8522 0.0548392 10.2498 0.0428572C9.47627 0.00829495 9.22811 0 7.25806 0Z" fill="white"/>
<path d="M7.26039 3.53223C6.52323 3.53223 5.80261 3.75082 5.18968 4.16037C4.57675 4.56992 4.09902 5.15203 3.81692 5.83308C3.53482 6.51414 3.46101 7.26355 3.60482 7.98655C3.74864 8.70956 4.10362 9.37368 4.62487 9.89494C5.14613 10.4162 5.81025 10.7712 6.53326 10.915C7.25626 11.0588 8.00567 10.985 8.68673 10.7029C9.36778 10.4208 9.94989 9.94306 10.3594 9.33013C10.769 8.7172 10.9876 7.99658 10.9876 7.25942C10.9876 6.2709 10.5949 5.32288 9.89591 4.6239C9.19693 3.92491 8.24891 3.53223 7.26039 3.53223ZM7.26039 9.67877C6.78189 9.67877 6.31413 9.53688 5.91627 9.27104C5.51841 9.00519 5.20832 8.62734 5.0252 8.18526C4.84209 7.74318 4.79417 7.25673 4.88753 6.78742C4.98088 6.31811 5.2113 5.88703 5.54965 5.54867C5.888 5.21032 6.31909 4.9799 6.7884 4.88655C7.25771 4.7932 7.74416 4.84111 8.18624 5.02422C8.62832 5.20734 9.00617 5.51743 9.27201 5.91529C9.53786 6.31315 9.67975 6.78091 9.67975 7.25942C9.67975 7.90107 9.42485 8.51644 8.97114 8.97016C8.51742 9.42387 7.90205 9.67877 7.26039 9.67877Z" fill="white"/>
<path d="M11.1327 4.25561C11.6137 4.25561 12.0037 3.86566 12.0037 3.38464C12.0037 2.90362 11.6137 2.51367 11.1327 2.51367C10.6517 2.51367 10.2617 2.90362 10.2617 3.38464C10.2617 3.86566 10.6517 4.25561 11.1327 4.25561Z" fill="white"/>
</svg>
