<svg width="13" height="11" viewBox="0 0 13 11" fill="none" xmlns="http://www.w3.org/2000/svg">
<path d="M12.6478 1.76789C12.1989 1.96742 11.725 2.09213 11.2262 2.16696C11.725 1.86766 12.1241 1.39376 12.2987 0.820101C11.8248 1.09446 11.301 1.29399 10.7273 1.4187C10.2784 0.944809 9.62989 0.645508 8.93152 0.645508C7.58466 0.645508 6.48722 1.74295 6.48722 3.0898C6.48722 3.28934 6.51216 3.46393 6.56205 3.63852C4.54176 3.53876 2.72101 2.56603 1.49886 1.06952C1.29933 1.44365 1.17462 1.84271 1.17462 2.29167C1.17462 3.13969 1.59863 3.88794 2.27206 4.33689C1.87299 4.31195 1.49886 4.21219 1.14968 4.03759V4.06253C1.14968 5.25974 1.9977 6.25741 3.12008 6.48189C2.92054 6.53177 2.69607 6.55672 2.47159 6.55672C2.32194 6.55672 2.14735 6.53177 1.9977 6.50683C2.32194 7.47956 3.21984 8.20287 4.29234 8.20287C3.44432 8.85136 2.39677 9.25043 1.24944 9.25043C1.04991 9.25043 0.850374 9.25043 0.675781 9.22549C1.77322 9.92386 3.04525 10.3229 4.44199 10.3229C8.95646 10.3229 11.4257 6.58166 11.4257 3.33922C11.4257 3.23946 11.4257 3.11475 11.4257 3.01498C11.8996 2.69074 12.3236 2.26673 12.6478 1.76789Z" fill="white"/>
</svg>
