<svg width="172" height="35" viewBox="0 0 172 35" fill="none" xmlns="http://www.w3.org/2000/svg">
<g clip-path="url(#clip0_1_4356)">
<path d="M4.67224 4.89941C7.00086 2.69991 10.1628 1.41611 13.3675 1.25643C14.4643 1.25643 15.5645 1.26294 16.6613 1.25317C16.6052 2.41646 16.6613 3.583 16.6283 4.74623C16.4735 7.34648 15.5019 9.88809 13.865 11.9279C11.7372 14.6715 8.48303 16.5125 5.02797 16.9883C3.51947 17.2294 1.98788 17.0763 0.4695 17.1187C0.495826 15.838 0.413502 14.5542 0.515626 13.2769C0.812073 10.1097 2.32386 7.07605 4.67224 4.89941Z" fill="#010D09" fill-opacity="0.2"/>
<path d="M17.6763 1.25317C18.8521 1.2662 20.0281 1.24666 21.2072 1.25968C24.1418 1.46495 27.0369 2.57934 29.2468 4.51167C31.6843 6.58077 33.3541 9.53946 33.7825 12.7002C33.9699 14.1665 33.8517 15.649 33.9241 17.1219C32.8962 17.1187 31.8722 17.1154 30.8443 17.1219C28.3181 17.0535 25.8348 16.2454 23.7202 14.8833C22.7453 14.1925 21.744 13.492 21.0128 12.534C19.4088 10.7614 18.3187 8.53587 17.9069 6.18977C17.5973 4.5605 17.7224 2.89872 17.6763 1.25317Z" fill="#010D09"/>
<path d="M0.471276 18.054C1.51539 18.1126 2.5628 18.005 3.60356 18.1191C8.05992 18.2136 12.3846 20.69 14.6934 24.4601C16.0175 26.5716 16.729 29.0742 16.6368 31.5605C16.6333 32.375 16.6466 33.1861 16.6235 33.9979C14.9702 33.9487 13.3002 34.0822 11.6632 33.7661C8.02701 33.1602 4.68394 31.0192 2.67144 27.963C1.14649 25.7407 0.385659 23.0264 0.464692 20.3447C0.464692 19.579 0.464695 18.8165 0.471276 18.054Z" fill="#010D09"/>
<path d="M28.3593 18.3989C30.1514 18.0045 31.9987 18.0697 33.8203 18.0697L33.8995 18.1479C33.8598 19.8521 33.9948 21.5759 33.6491 23.2605C32.9211 27.0403 30.3918 30.4163 26.9892 32.2703C24.8714 33.4369 22.4406 34.0101 20.0198 33.9841C19.2458 33.9875 18.4684 33.971 17.6944 33.9941C17.6944 32.5832 17.6351 31.1656 17.7966 29.7614C18.172 26.3626 20.0297 23.1986 22.7008 21.0611C24.3542 19.7706 26.2975 18.8355 28.3593 18.3989Z" fill="#010D09" fill-opacity="0.6"/>
<path d="M47.4205 27.6855C47.4205 28.2592 47.2197 28.7446 46.8187 29.1417C46.4394 29.5168 45.9598 29.7044 45.3802 29.7044C44.8225 29.7044 44.354 29.5168 43.9752 29.1417C43.5959 28.7446 43.4063 28.2592 43.4063 27.6855V7.23265C43.4063 6.65901 43.5959 6.18463 43.9752 5.80958C44.3762 5.41246 44.8672 5.21387 45.4472 5.21387C46.0267 5.21387 46.4952 5.41246 46.8521 5.80958C47.2309 6.18463 47.4205 6.65901 47.4205 7.23265V27.6855Z" fill="#010D09"/>
<path d="M63.5338 11.9993C64.1132 11.9993 64.5928 12.1978 64.9722 12.595C65.3509 12.97 65.5405 13.4444 65.5405 14.018V22.4242C65.5405 24.763 64.883 26.6163 63.5672 27.9843C62.2509 29.3522 60.3556 30.0363 57.8798 30.0363C55.4044 30.0363 53.5087 29.3522 52.1929 27.9843C50.8994 26.6163 50.2524 24.763 50.2524 22.4242V14.018C50.2524 13.4444 50.4421 12.97 50.8215 12.595C51.2007 12.1978 51.6797 11.9993 52.2599 11.9993C52.84 11.9993 53.319 12.1978 53.6984 12.595C54.0776 12.97 54.2673 13.4444 54.2673 14.018V22.4242C54.2673 23.7701 54.5684 24.774 55.1702 25.436C55.7725 26.0758 56.6756 26.3956 57.8798 26.3956C59.1068 26.3956 60.021 26.0758 60.6234 25.436C61.2252 24.774 61.5263 23.7701 61.5263 22.4242V14.018C61.5263 13.4444 61.716 12.97 62.0954 12.595C62.474 12.1978 62.9536 11.9993 63.5338 11.9993Z" fill="#010D09"/>
<path d="M77.614 11.668C79.3983 11.668 80.7139 12.0982 81.5618 12.9587C82.409 13.7971 82.9667 14.8892 83.2339 16.235L82.6656 15.9372L82.9333 15.4077C83.2004 14.9003 83.6132 14.3597 84.171 13.7861C84.7281 13.1904 85.3974 12.6939 86.1777 12.2968C86.9809 11.8776 87.8727 11.668 88.8544 11.668C90.4602 11.668 91.6755 12.01 92.5005 12.6939C93.3483 13.3779 93.9278 14.2935 94.2401 15.4408C94.5524 16.566 94.7086 17.8237 94.7086 19.2136V27.686C94.7086 28.2598 94.519 28.7451 94.1397 29.1421C93.7604 29.5173 93.2813 29.705 92.7013 29.705C92.1217 29.705 91.6421 29.5173 91.2628 29.1421C90.8835 28.7451 90.6939 28.2598 90.6939 27.686V19.2136C90.6939 18.4855 90.6052 17.8347 90.4267 17.2611C90.2482 16.6653 89.9247 16.191 89.4562 15.838C88.9882 15.485 88.319 15.3085 87.4494 15.3085C86.6016 15.3085 85.8771 15.485 85.2747 15.838C84.6724 16.191 84.2155 16.6653 83.9032 17.2611C83.6132 17.8347 83.4681 18.4855 83.4681 19.2136V27.686C83.4681 28.2598 83.2785 28.7451 82.8999 29.1421C82.5205 29.5173 82.0408 29.705 81.4614 29.705C80.8813 29.705 80.4016 29.5173 80.0229 29.1421C79.6436 28.7451 79.454 28.2598 79.454 27.686V19.2136C79.454 18.4855 79.3647 17.8347 79.1862 17.2611C79.0079 16.6653 78.6843 16.191 78.2163 15.838C77.7478 15.485 77.0785 15.3085 76.2089 15.3085C75.3618 15.3085 74.6367 15.485 74.0342 15.838C73.4324 16.191 72.9752 16.6653 72.6628 17.2611C72.3733 17.8347 72.2283 18.4855 72.2283 19.2136V27.686C72.2283 28.2598 72.0387 28.7451 71.6594 29.1421C71.2801 29.5173 70.801 29.705 70.221 29.705C69.6409 29.705 69.1618 29.5173 68.7825 29.1421C68.4033 28.7451 68.2136 28.2598 68.2136 27.686V14.0177C68.2136 13.4441 68.4033 12.9697 68.7825 12.5946C69.1618 12.1975 69.6409 11.9989 70.221 11.9989C70.801 11.9989 71.2801 12.1975 71.6594 12.5946C72.0387 12.9697 72.2283 13.4441 72.2283 14.0177V15.4408L71.7264 15.3415C71.9272 14.9665 72.206 14.5693 72.5624 14.1501C72.9194 13.7089 73.3545 13.3007 73.8675 12.9256C74.3801 12.5505 74.949 12.2527 75.5732 12.032C76.1978 11.7893 76.8784 11.668 77.614 11.668Z" fill="#010D09"/>
<path d="M101.162 27.6864C101.162 28.26 100.972 28.7454 100.593 29.1425C100.214 29.5176 99.7345 29.7052 99.1545 29.7052C98.5749 29.7052 98.0953 29.5176 97.7159 29.1425C97.3373 28.7454 97.1476 28.26 97.1476 27.6864V14.0181C97.1476 13.4444 97.3373 12.97 97.7159 12.5949C98.0953 12.1978 98.5749 11.9992 99.1545 11.9992C99.7345 11.9992 100.214 12.1978 100.593 12.5949C100.972 12.97 101.162 13.4444 101.162 14.0181V27.6864ZM99.1209 9.84802C98.3629 9.84802 97.8275 9.72668 97.5151 9.48395C97.2033 9.24127 97.0472 8.81104 97.0472 8.19325V7.56443C97.0472 6.92463 97.2146 6.49434 97.5487 6.27374C97.9056 6.03107 98.441 5.90967 99.1545 5.90967C99.9353 5.90967 100.482 6.03107 100.794 6.27374C101.106 6.51642 101.262 6.94664 101.262 7.56443V8.19325C101.262 8.83311 101.095 9.27438 100.76 9.51706C100.426 9.73772 99.8794 9.84802 99.1209 9.84802Z" fill="#010D09"/>
<path d="M113.181 11.668C114.831 11.668 116.08 12.01 116.927 12.6939C117.797 13.3779 118.388 14.2935 118.7 15.4408C119.035 16.566 119.202 17.8237 119.202 19.2136V27.686C119.202 28.2598 119.013 28.7451 118.634 29.1421C118.254 29.5173 117.775 29.705 117.195 29.705C116.616 29.705 116.136 29.5173 115.757 29.1421C115.377 28.7451 115.188 28.2598 115.188 27.686V19.2136C115.188 18.4855 115.088 17.8347 114.887 17.2611C114.709 16.6653 114.374 16.191 113.883 15.838C113.393 15.485 112.69 15.3085 111.776 15.3085C110.884 15.3085 110.126 15.485 109.501 15.838C108.899 16.191 108.43 16.6653 108.096 17.2611C107.783 17.8347 107.627 18.4855 107.627 19.2136V27.686C107.627 28.2598 107.438 28.7451 107.059 29.1421C106.68 29.5173 106.2 29.705 105.621 29.705C105.04 29.705 104.561 29.5173 104.182 29.1421C103.803 28.7451 103.613 28.2598 103.613 27.686V14.0177C103.613 13.4441 103.803 12.9697 104.182 12.5946C104.561 12.1975 105.04 11.9989 105.621 11.9989C106.2 11.9989 106.68 12.1975 107.059 12.5946C107.438 12.9697 107.627 13.4441 107.627 14.0177V15.4408L107.126 15.3415C107.327 14.9665 107.616 14.5693 107.995 14.1501C108.375 13.7089 108.821 13.3007 109.333 12.9256C109.847 12.5505 110.427 12.2527 111.073 12.032C111.72 11.7893 112.422 11.668 113.181 11.668Z" fill="#010D09"/>
<path d="M139.064 20.8684C139.064 22.6776 138.652 24.2772 137.827 25.6673C137.025 27.0352 135.931 28.1052 134.548 28.8773C133.188 29.6498 131.661 30.036 129.966 30.036C128.27 30.036 126.732 29.6498 125.349 28.8773C123.989 28.1052 122.896 27.0352 122.071 25.6673C121.268 24.2772 120.867 22.6776 120.867 20.8684C120.867 19.0592 121.268 17.4707 122.071 16.1028C122.896 14.7127 123.989 13.6317 125.349 12.8594C126.732 12.0651 128.27 11.668 129.966 11.668C131.661 11.668 133.188 12.0651 134.548 12.8594C135.931 13.6317 137.025 14.7127 137.827 16.1028C138.652 17.4707 139.064 19.0592 139.064 20.8684ZM135.051 20.8684C135.051 19.7432 134.817 18.7724 134.349 17.9561C133.902 17.1176 133.288 16.4668 132.509 16.0034C131.75 15.5401 130.903 15.3085 129.966 15.3085C129.03 15.3085 128.17 15.5401 127.39 16.0034C126.632 16.4668 126.018 17.1176 125.55 17.9561C125.104 18.7724 124.881 19.7432 124.881 20.8684C124.881 21.9717 125.104 22.9425 125.55 23.7808C126.018 24.5972 126.632 25.237 127.39 25.7003C128.17 26.1637 129.03 26.3953 129.966 26.3953C130.903 26.3953 131.75 26.1637 132.509 25.7003C133.288 25.237 133.902 24.5972 134.349 23.7808C134.817 22.9425 135.051 21.9717 135.051 20.8684Z" fill="#010D09"/>
<path d="M154.025 11.9993C154.606 11.9993 155.086 12.1978 155.465 12.595C155.844 12.97 156.033 13.4444 156.033 14.018V22.4242C156.033 24.763 155.375 26.6163 154.059 27.9843C152.744 29.3522 150.849 30.0363 148.372 30.0363C145.897 30.0363 144.001 29.3522 142.686 27.9843C141.393 26.6163 140.745 24.763 140.745 22.4242V14.018C140.745 13.4444 140.934 12.97 141.315 12.595C141.694 12.1978 142.172 11.9993 142.752 11.9993C143.333 11.9993 143.811 12.1978 144.19 12.595C144.571 12.97 144.76 13.4444 144.76 14.018V22.4242C144.76 23.7701 145.06 24.774 145.663 25.436C146.265 26.0758 147.169 26.3956 148.372 26.3956C149.599 26.3956 150.513 26.0758 151.115 25.436C151.718 24.774 152.019 23.7701 152.019 22.4242V14.018C152.019 13.4444 152.209 12.97 152.588 12.595C152.967 12.1978 153.447 11.9993 154.025 11.9993Z" fill="#010D09"/>
<path d="M157.671 26.9579C157.448 26.6491 157.347 26.2519 157.37 25.7665C157.392 25.2811 157.682 24.862 158.239 24.5089C158.595 24.2882 158.976 24.2 159.376 24.2442C159.778 24.2662 160.168 24.4648 160.548 24.8398C161.195 25.4797 161.874 25.9761 162.588 26.3291C163.302 26.6821 164.195 26.8587 165.264 26.8587C165.599 26.8366 165.967 26.7925 166.369 26.7263C166.77 26.6381 167.115 26.4615 167.405 26.1967C167.717 25.9099 167.873 25.4797 167.873 24.906C167.873 24.4206 167.707 24.0346 167.371 23.7478C167.037 23.4609 166.592 23.2182 166.033 23.0196C165.498 22.8211 164.896 22.6335 164.228 22.4571C163.536 22.2585 162.822 22.0379 162.086 21.7951C161.373 21.5524 160.714 21.2435 160.113 20.8684C159.511 20.4712 159.02 19.9528 158.64 19.313C158.262 18.6731 158.072 17.8677 158.072 16.897C158.072 15.7938 158.384 14.8561 159.009 14.0839C159.634 13.3117 160.437 12.716 161.417 12.2968C162.421 11.8776 163.469 11.668 164.562 11.668C165.254 11.668 165.978 11.7562 166.736 11.9327C167.494 12.0872 168.219 12.3519 168.911 12.727C169.602 13.08 170.182 13.5544 170.651 14.1501C170.895 14.4811 171.041 14.8782 171.085 15.3415C171.13 15.8048 170.918 16.224 170.45 16.5992C170.115 16.8639 169.725 16.9852 169.278 16.9632C168.832 16.919 168.465 16.7646 168.174 16.4998C167.795 16.0145 167.283 15.6284 166.636 15.3415C166.012 15.0547 165.287 14.9113 164.461 14.9113C164.127 14.9113 163.759 14.9555 163.357 15.0437C162.978 15.1099 162.644 15.2754 162.355 15.5401C162.064 15.7828 161.919 16.18 161.919 16.7316C161.919 17.239 162.086 17.6472 162.421 17.9561C162.755 18.2429 163.201 18.4855 163.759 18.6841C164.338 18.8607 164.953 19.0372 165.599 19.2136C166.268 19.3902 166.949 19.5998 167.639 19.8424C168.33 20.0852 168.967 20.405 169.547 20.8022C170.127 21.1994 170.594 21.7179 170.952 22.3577C171.309 22.9755 171.487 23.7698 171.487 24.7406C171.487 25.8659 171.153 26.8256 170.483 27.6198C169.815 28.4142 168.977 29.0207 167.975 29.4401C166.971 29.8374 165.944 30.036 164.896 30.036C163.58 30.036 162.265 29.8154 160.949 29.3739C159.634 28.9104 158.54 28.1052 157.671 26.9579Z" fill="#010D09"/>
</g>
<defs>
<clipPath id="clip0_1_4356">
<rect width="171.579" height="34.5719" fill="white" transform="translate(0.0839844)"/>
</clipPath>
</defs>
</svg>
