<svg width="175" height="30" viewBox="0 0 175 30" fill="none" xmlns="http://www.w3.org/2000/svg">
<g clip-path="url(#clip0_1_4347)">
<path fill-rule="evenodd" clip-rule="evenodd" d="M18.9067 1.91968C16.1516 1.91968 13.9183 4.12922 13.9183 6.85478C13.9183 9.58038 16.1516 11.7899 18.9067 11.7899C21.6618 11.7899 23.8952 9.58038 23.8952 6.85478C23.8952 4.12922 21.6618 1.91968 18.9067 1.91968ZM9.15317 11.5206C14.3458 11.5206 18.5554 15.6851 18.5554 20.8222V28.4461H13.8787V20.8222C13.8787 20.2751 13.7837 19.7501 13.6092 19.2621L6.7398 26.058L3.43288 22.7864L10.0575 16.2328C9.76476 16.1766 9.46242 16.1473 9.15317 16.1473H1.44714V11.5206H9.15317ZM28.7766 11.5206C23.584 11.5206 19.3743 15.6851 19.3743 20.8222V28.4461H24.051V20.8222C24.051 20.3937 24.1094 19.9786 24.2185 19.5844L31.4043 26.6935L34.7113 23.4217L27.5255 16.3129C27.924 16.2049 28.3436 16.1473 28.7766 16.1473H36.4825V11.5206H28.7766Z" fill="#010D09"/>
<path d="M43.9642 28.7132V2.11963H51.5772L59.7395 24.9085H60.3281V2.11963H64.684V28.7132H57.2282L48.8693 5.88543H48.32V28.7132H43.9642Z" fill="#010D09"/>
<path d="M82.1354 25.2175L83.2341 25.1013L83.3127 28.2459C80.3302 28.8412 77.6879 29.1388 75.3858 29.1388C72.4819 29.1388 70.3889 28.3492 69.1072 26.7706C67.8513 25.1917 67.2234 22.6683 67.2234 19.2001C67.2234 12.3156 70.0619 8.87329 75.7389 8.87329C81.2328 8.87329 83.9799 11.8367 83.9799 17.7637L83.7052 20.7917H71.54C71.5661 22.3965 71.9194 23.5742 72.5997 24.3246C73.2797 25.0754 74.5487 25.4505 76.4062 25.4505C78.2635 25.4505 80.1734 25.373 82.1354 25.2175ZM79.7809 17.5308C79.7809 15.6155 79.4669 14.2826 78.839 13.532C78.2376 12.7556 77.204 12.3673 75.7389 12.3673C74.274 12.3673 73.2014 12.7685 72.5211 13.5708C71.867 14.3731 71.5268 15.6931 71.5009 17.5308H79.7809Z" fill="#010D09"/>
<path d="M96.687 12.9111H91.2716V21.4522C91.2716 23.0311 91.3894 24.0791 91.6247 24.5967C91.8602 25.1142 92.4619 25.3734 93.43 25.3734L96.6479 25.2567L96.8439 28.6343C95.0911 28.9708 93.757 29.1392 92.8414 29.1392C90.6178 29.1392 89.0873 28.6343 88.2501 27.625C87.4388 26.6155 87.0336 24.7133 87.0336 21.9181V12.9111H84.5219V9.30068H87.0336V3.67139H91.2716V9.30068H96.687V12.9111Z" fill="#010D09"/>
<path d="M96.7023 9.30151H100.901L104.001 25.1025H104.786L108.514 9.68974H112.909L116.637 25.1025H117.422L120.483 9.30151H124.721L120.561 28.7128H113.773L110.712 15.3966L107.651 28.7128H100.862L96.7023 9.30151Z" fill="#010D09"/>
<path d="M127.451 11.3968C128.812 9.71445 131.061 8.87329 134.201 8.87329C137.339 8.87329 139.576 9.71445 140.911 11.3968C142.272 13.0791 142.952 15.6025 142.952 18.9672C142.952 22.3318 142.297 24.8681 140.989 26.5762C139.681 28.2847 137.419 29.1388 134.201 29.1388C130.983 29.1388 128.72 28.2847 127.412 26.5762C126.104 24.8681 125.45 22.3318 125.45 18.9672C125.45 15.6025 126.117 13.0791 127.451 11.3968ZM130.668 24.0141C131.27 25.0494 132.448 25.567 134.201 25.567C135.954 25.567 137.131 25.0494 137.733 24.0141C138.334 22.9788 138.635 21.2837 138.635 18.9284C138.635 16.573 138.307 14.9037 137.654 13.9202C137.026 12.9367 135.875 12.4449 134.201 12.4449C132.526 12.4449 131.362 12.9367 130.708 13.9202C130.081 14.9037 129.766 16.573 129.766 18.9284C129.766 21.2837 130.067 22.9788 130.668 24.0141Z" fill="#010D09"/>
<path d="M145.239 28.7116V9.30033H149.477V11.6297C151.7 10.2062 153.924 9.28739 156.148 8.87329V13.105C153.898 13.5449 151.975 14.1143 150.38 14.8132L149.517 15.1625V28.7116H145.239Z" fill="#010D09"/>
<path d="M161.734 28.712H157.457V1.22559H161.734V17.104L164.168 16.8712L168.798 9.30068H173.585L167.935 18.3853L173.899 28.712H169.072L164.285 20.5203L161.734 20.792V28.712Z" fill="#010D09"/>
</g>
<defs>
<clipPath id="clip0_1_4347">
<rect width="174.14" height="29.4501" fill="white" transform="translate(0.664062)"/>
</clipPath>
</defs>
</svg>
