<svg width="183" height="35" viewBox="0 0 183 35" fill="none" xmlns="http://www.w3.org/2000/svg">
<g clip-path="url(#clip0_1_4337)">
<path d="M58.6412 30.3987C56.0307 30.3987 53.7228 29.8914 51.7178 28.8769C49.7129 27.839 48.1628 26.3746 47.0672 24.4835C45.9715 22.5923 45.4238 20.3667 45.4238 17.8069C45.4238 15.2469 45.9715 13.0214 47.0672 11.1303C48.1628 9.21609 49.7129 7.75167 51.7178 6.73692C53.7228 5.6991 56.0307 5.18018 58.6412 5.18018C60.4131 5.18018 61.975 5.3647 63.327 5.7337C64.7026 6.07965 65.9612 6.63312 67.1033 7.3942V12.4103C66.0778 11.58 64.9007 10.9804 63.5719 10.6114C62.2664 10.2193 60.7747 10.0233 59.0962 10.0233C57.5343 10.0233 56.1235 10.3462 54.8648 10.9919C53.6295 11.6146 52.6504 12.514 51.9278 13.6903C51.2051 14.8664 50.8435 16.2386 50.8435 17.8069C50.8435 19.3982 51.17 20.7935 51.8225 21.9926C52.4988 23.1688 53.4428 24.0799 54.655 24.7256C55.8672 25.3713 57.266 25.6941 58.8511 25.6941C60.2965 25.6941 61.5551 25.4405 62.6275 24.9332V20.263H58.6763V16.3885H67.7677V28.0467C65.4598 29.6148 62.418 30.3987 58.6412 30.3987Z" fill="#010D09"/>
<path d="M68.9956 13.2746H74.1007V15.6616C74.7769 14.8544 75.7209 14.2433 76.933 13.8281C78.1452 13.39 79.5209 13.1709 81.0591 13.1709V17.1491C79.4508 17.1491 78.0287 17.3912 76.7932 17.8756C75.5812 18.3599 74.7418 19.0979 74.2755 20.0896V29.8797H68.9956V13.2746Z" fill="#010D09"/>
<path d="M91.2064 30.3984C87.9893 30.3984 85.4596 29.6375 83.6181 28.1152C81.7767 26.5702 80.856 24.4139 80.856 21.6464C80.856 18.902 81.672 16.7342 83.3035 15.1428C84.9587 13.5515 87.313 12.7559 90.3672 12.7559C92.3717 12.7559 94.0734 13.1249 95.4723 13.8628C96.8707 14.6008 97.9318 15.6271 98.6544 16.9416C99.3771 18.2332 99.7382 19.6976 99.7382 21.335V23.4453H85.8914C86.2644 25.567 88.2688 26.6279 91.9054 26.6279C92.9777 26.6279 94.0852 26.5357 95.2272 26.3512C96.3699 26.1667 97.3607 25.9129 98.2 25.5901V29.2569C97.384 29.6028 96.3348 29.8799 95.0524 30.0871C93.7706 30.2948 92.4882 30.3984 91.2064 30.3984ZM94.7377 20.0551C94.6682 18.9481 94.2482 18.0948 93.4792 17.4951C92.71 16.8725 91.649 16.5612 90.297 16.5612C88.9683 16.5612 87.9191 16.8725 87.15 17.4951C86.3809 18.1178 85.9611 18.9711 85.8914 20.0551H94.7377Z" fill="#010D09"/>
<path d="M110.561 30.3984C107.344 30.3984 104.814 29.6375 102.973 28.1152C101.131 26.5702 100.21 24.4139 100.21 21.6464C100.21 18.902 101.026 16.7342 102.658 15.1428C104.313 13.5515 106.668 12.7559 109.721 12.7559C111.726 12.7559 113.428 13.1249 114.827 13.8628C116.225 14.6008 117.286 15.6271 118.009 16.9416C118.731 18.2332 119.093 19.6976 119.093 21.335V23.4453H105.246C105.619 25.567 107.624 26.6279 111.26 26.6279C112.333 26.6279 113.44 26.5357 114.582 26.3512C115.724 26.1667 116.715 25.9129 117.554 25.5901V29.2569C116.738 29.6028 115.689 29.8799 114.407 30.0871C113.125 30.2948 111.843 30.3984 110.561 30.3984ZM114.092 20.0551C114.022 18.9481 113.603 18.0948 112.834 17.4951C112.064 16.8725 111.004 16.5612 109.652 16.5612C108.323 16.5612 107.274 16.8725 106.505 17.4951C105.735 18.1178 105.316 18.9711 105.246 20.0551H114.092Z" fill="#010D09"/>
<path d="M120.266 13.2748H125.371V15.3158C126.14 14.4625 127.049 13.8282 128.098 13.4131C129.171 12.9749 130.29 12.7559 131.455 12.7559C133.74 12.7559 135.442 13.367 136.56 14.5893C137.702 15.7886 138.274 17.4145 138.274 19.467V29.8799H132.994V20.0551C132.994 17.9103 131.991 16.8379 129.986 16.8379C129.1 16.8379 128.273 17.057 127.504 17.4951C126.735 17.9103 126.082 18.5331 125.546 19.3632V29.8799H120.266V13.2748Z" fill="#010D09"/>
<path d="M142.933 10.7147C142.117 10.7147 141.429 10.4495 140.87 9.91908C140.309 9.38866 140.03 8.71985 140.03 7.91264C140.03 7.12856 140.309 6.47128 140.87 5.94082C141.429 5.38734 142.117 5.1106 142.933 5.1106C143.748 5.1106 144.436 5.38734 144.996 5.94082C145.555 6.47128 145.834 7.12856 145.834 7.91264C145.834 8.71985 145.555 9.38866 144.996 9.91908C144.436 10.4495 143.748 10.7147 142.933 10.7147ZM140.275 13.2747H145.59V29.8798H140.275V13.2747Z" fill="#010D09"/>
<path d="M154.593 30.3984C153.334 30.3984 151.983 30.2601 150.538 29.9835C149.115 29.7299 147.996 29.361 147.18 28.8766V24.7944C148.112 25.3479 149.232 25.7976 150.538 26.1436C151.842 26.4896 153.055 26.6624 154.174 26.6624C155.129 26.6624 155.83 26.5818 156.271 26.4203C156.714 26.2588 156.936 25.9591 156.936 25.5209C156.936 25.175 156.808 24.8983 156.552 24.6907C156.296 24.4601 155.899 24.2639 155.362 24.1026C154.85 23.9181 153.987 23.6528 152.775 23.3069C151.353 22.8918 150.234 22.4767 149.419 22.0616C148.626 21.6233 148.019 21.0814 147.6 20.4357C147.203 19.7899 147.005 18.9596 147.005 17.9448C147.005 16.2152 147.692 14.9238 149.069 14.0705C150.467 13.194 152.356 12.7559 154.734 12.7559C155.899 12.7559 157.1 12.8827 158.335 13.1364C159.594 13.367 160.561 13.6784 161.237 14.0705V18.0487C160.561 17.6105 159.676 17.253 158.58 16.9763C157.507 16.6995 156.458 16.5612 155.433 16.5612C154.476 16.5612 153.731 16.6534 153.195 16.8379C152.682 17.0224 152.425 17.3684 152.425 17.8757C152.425 18.3138 152.671 18.6483 153.16 18.8789C153.672 19.1095 154.617 19.3979 155.992 19.7437L156.691 19.9167C158.16 20.3088 159.302 20.7469 160.118 21.2313C160.935 21.6925 161.506 22.2576 161.832 22.9264C162.182 23.5721 162.356 24.3908 162.356 25.3825C162.356 26.9048 161.692 28.127 160.364 29.0497C159.035 29.9488 157.111 30.3984 154.593 30.3984Z" fill="#010D09"/>
<path d="M163.578 4.3147H168.857V15.1771C169.651 14.3699 170.549 13.7703 171.55 13.3782C172.553 12.9631 173.626 12.7555 174.768 12.7555C177.052 12.7555 178.754 13.3667 179.873 14.589C181.015 15.7883 181.586 17.4142 181.586 19.4667V29.8795H176.307V20.0548C176.307 17.91 175.303 16.8376 173.299 16.8376C172.413 16.8376 171.586 17.0567 170.816 17.4949C170.047 17.91 169.394 18.5327 168.857 19.3629V29.8795H163.578V4.3147Z" fill="#010D09"/>
<path fill-rule="evenodd" clip-rule="evenodd" d="M27.3916 9.20969C27.3916 13.6039 23.7911 17.1662 19.3494 17.1662C14.9075 17.1662 11.3068 13.6039 11.3068 9.20969C11.3068 4.81542 14.9075 1.25317 19.3494 1.25317C23.7911 1.25317 27.3916 4.81542 27.3916 9.20969ZM0.641818 16.5879C9.40395 16.0037 17.0404 22.4937 17.7517 31.1807C17.8254 32.0809 17.8218 32.9692 17.7467 33.8405C8.98448 34.4247 1.34803 27.9346 0.636711 19.2478C0.563053 18.3477 0.56656 17.4589 0.641818 16.5879ZM23.4158 33.5362C32.1965 32.8325 38.7567 25.2776 38.1661 16.6092C37.2857 16.5348 36.3876 16.5314 35.4777 16.6042C26.6968 17.3079 20.1367 24.8627 20.7274 33.5311C21.6077 33.6056 22.5059 33.6092 23.4158 33.5362Z" fill="#010D09"/>
</g>
<defs>
<clipPath id="clip0_1_4337">
<rect width="181.822" height="34.5719" fill="white" transform="translate(0.261719)"/>
</clipPath>
</defs>
</svg>
