<svg width="60" height="60" viewBox="0 0 60 60" fill="none" xmlns="http://www.w3.org/2000/svg">
<path d="M30.0762 59.9981C29.1299 59.9981 28.3301 59.3129 28.101 58.3949C27.3706 55.469 25.9723 52.3573 23.9062 49.0606C21.4583 45.1021 17.9687 41.4304 13.4375 38.0449C9.49647 35.0662 5.55543 33.035 1.61441 31.9513C0.681015 31.6948 0 30.8671 0 29.8991C0 28.95 0.654819 28.1319 1.56742 27.8713C5.43135 26.7681 9.15366 24.977 12.7344 22.498C16.849 19.6335 20.2865 16.1959 23.0469 12.1855C25.4889 8.613 27.1652 5.07969 28.0759 1.58567C28.3145 0.670332 29.1203 -0.00195312 30.0663 -0.00195312C31.0227 -0.00195312 31.8342 0.685221 32.067 1.61304C32.5926 3.70767 33.414 5.85165 34.5312 8.04492C35.9376 10.7533 37.7343 13.3574 39.9219 15.8574C42.1614 18.3053 44.6616 20.5189 47.4219 22.498C51.0291 25.055 54.696 26.8514 58.4232 27.8872C59.3376 28.1413 60 28.9554 60 29.9043C60 30.8674 59.3175 31.6882 58.3887 31.9429C56.0262 32.5906 53.5944 33.6353 51.0939 35.0761C48.0729 36.847 45.2604 38.9563 42.6561 41.4043C40.0521 43.8001 37.9167 46.3261 36.2499 48.9823C34.1799 52.2859 32.7801 55.4216 32.0511 58.3898C31.8249 59.3105 31.0239 59.9981 30.0762 59.9981Z" fill="black"/>
</svg>
